<svg xmlns="http://www.w3.org/2000/svg" viewBox="0 0 300 200" fill="none" stroke="#5C4033" stroke-width="1.5">
  <rect x="50" y="60" width="200" height="100" rx="8" stroke="#5C4033" stroke-width="2" fill="#F5F0E8"/>
  <rect x="70" y="40" width="160" height="30" rx="3" stroke="#5C4033" stroke-width="1.5" fill="#E8DFD0"/>
  <path d="M70 160 L90 160 L95 180 L75 180 Z" stroke="#5C4033" stroke-width="1.5" fill="#7A5A47"/>
  <path d="M210 160 L230 160 L225 180 L205 180 Z" stroke="#5C4033" stroke-width="1.5" fill="#7A5A47"/>
  <circle cx="85" cy="185" r="8" stroke="#5C4033" stroke-width="1.5" fill="#5C4033"/>
  <circle cx="215" cy="185" r="8" stroke="#5C4033" stroke-width="1.5" fill="#5C4033"/>
  <path d="M230 70 L270 50 L270 80 L230 90 Z" stroke="#5C4033" stroke-width="1.5" fill="#C4A35A"/>
  <path d="M250 50 L250 30 L260 30 L260 55" stroke="#5C4033" stroke-width="1.5" fill="none"/>
  <circle cx="135" cy="105" r="15" stroke="#5C4033" stroke-width="1.5" fill="#F9F5ED"/>
  <circle cx="165" cy="115" r="10" stroke="#5C4033" stroke-width="1.5" fill="#F9F5ED"/>
  <rect x="180" y="95" width="35" height="12" rx="2" stroke="#5C4033" stroke-width="1" fill="#E8DFD0"/>
  <line x1="90" y1="105" x2="120" y2="105" stroke="#5C4033" stroke-width="1" stroke-dasharray="3,2"/>
  <text x="150" y="25" text-anchor="middle" font-size="11" fill="#5C4033" font-family="serif">连弩车</text>
</svg>
