<svg xmlns="http://www.w3.org/2000/svg" viewBox="0 0 200 200">
  <defs>
    <pattern id="grid-brake-183" width="10" height="10" patternUnits="userSpaceOnUse">
      <path d="M 10 0 L 0 0 0 10" fill="none" stroke="rgba(92, 64, 51, 0.05)" stroke-width="0.5"/>
    </pattern>
  </defs>
  <rect width="200" height="200" fill="url(#grid-brake-183)"/>
  
        <circle cx="100" cy="100" r="45" stroke="#5C4033" stroke-width="3" fill="#F5F0E8"/>
        <circle cx="100" cy="100" r="10" stroke="#5C4033" stroke-width="2" fill="#C4A35A"/>
        <path d="M40,70 L30,60 L35,55" stroke="#7A5A47" stroke-width="2" fill="#E8DFD0"/>
        <path d="M160,70 L170,60 L165,55" stroke="#7A5A47" stroke-width="2" fill="#E8DFD0"/>
        <rect x="35" y="75" width="15" height="35" stroke="#5C4033" stroke-width="2" fill="#E8DFD0"/>
        <rect x="150" y="75" width="15" height="35" stroke="#5C4033" stroke-width="2" fill="#E8DFD0"/>
        <line x1="42" y1="110" x2="60" y2="100" stroke="#7A5A47" stroke-width="2"/>
        <line x1="158" y1="110" x2="140" y2="100" stroke="#7A5A47" stroke-width="2"/>
      
  <g stroke="#7A5A47" stroke-width="1" fill="#7A5A47" font-size="9" font-family="Consolas, monospace">
    <line x1="25" y1="185" x2="175" y2="185"/>
    <line x1="25" y1="180" x2="25" y2="190"/>
    <line x1="175" y1="180" x2="175" y2="190"/>
    <text x="100" y="195" text-anchor="middle">直径 7.6cm</text>
  </g>
  <text x="100" y="172" text-anchor="middle" fill="#5C4033" font-size="11" font-family="SimSun, STSong, serif" font-weight="bold">单向超越离合器</text>
</svg>