<svg xmlns="http://www.w3.org/2000/svg" viewBox="0 0 200 200" fill="none" stroke="#5C4033" stroke-width="2">
  <circle cx="100" cy="100" r="50" stroke="#5C4033" stroke-width="2" fill="#F5F0E8"/>
  <circle cx="100" cy="100" r="40" stroke="#5C4033" stroke-width="1" fill="none"/>
  <path d="M100 60 L100 50 L108 45 L92 45 L100 50" stroke="#5C4033" stroke-width="1.8" fill="#E8DFD0"/>
  <path d="M100 140 L100 150 L108 155 L92 155 L100 150" stroke="#5C4033" stroke-width="1.8" fill="#E8DFD0"/>
  <path d="M60 100 L50 100 L45 92 L45 108 L50 100" stroke="#5C4033" stroke-width="1.8" fill="#E8DFD0"/>
  <path d="M140 100 L150 100 L155 92 L155 108 L150 100" stroke="#5C4033" stroke-width="1.8" fill="#E8DFD0"/>
  <path d="M72 72 L64 64 L58 68 L66 76 L72 72" stroke="#5C4033" stroke-width="1.5" fill="#E8DFD0"/>
  <path d="M128 128 L136 136 L142 132 L134 124 L128 128" stroke="#5C4033" stroke-width="1.5" fill="#E8DFD0"/>
  <path d="M72 128 L64 136 L58 132 L66 124 L72 128" stroke="#5C4033" stroke-width="1.5" fill="#E8DFD0"/>
  <path d="M128 72 L136 64 L142 68 L134 76 L128 72" stroke="#5C4033" stroke-width="1.5" fill="#E8DFD0"/>
  <circle cx="100" cy="100" r="15" stroke="#5C4033" stroke-width="1.5" fill="#F9F5ED"/>
  <circle cx="100" cy="100" r="5" stroke="#5C4033" stroke-width="1" fill="none"/>
  <text x="100" y="185" text-anchor="middle" font-size="9" fill="#5C4033" font-family="serif">飞轮</text>
</svg>
