<svg xmlns="http://www.w3.org/2000/svg" viewBox="0 0 200 200">
  <defs>
    <pattern id="grid-gear-039" width="10" height="10" patternUnits="userSpaceOnUse">
      <path d="M 10 0 L 0 0 0 10" fill="none" stroke="rgba(92, 64, 51, 0.05)" stroke-width="0.5"/>
    </pattern>
  </defs>
  <rect width="200" height="200" fill="url(#grid-gear-039)"/>
  
        <circle cx="100" cy="100" r="74.50964506172839" stroke="#C4A35A" stroke-width="1" stroke-dasharray="4,3" fill="none"/>
        <path d="M159.5096450617284,100 L159.5,100.0 L167.1,107.1 L166.5,111.7 L157.2,116.4 L155.9,120.4 L160.7,129.6 L158.5,133.8 L148.1,135.0 L145.6,138.3 L146.9,148.6 L143.4,151.7 L133.3,149.3 L129.8,151.5 L127.5,161.7 L123.1,163.4 L114.4,157.7 L110.3,158.6 L104.7,167.3 L100.0,167.5 L93.8,159.2 L89.7,158.6 L81.4,164.9 L76.9,163.4 L73.9,153.5 L70.2,151.5 L60.3,154.6 L56.6,151.7 L57.2,141.3 L54.4,138.3 L44.0,137.8 L41.5,133.8 L45.6,124.2 L44.1,120.4 L34.5,116.3 L33.5,111.7 L40.6,104.2 L40.5,100.0 L32.9,92.9 L33.5,88.3 L42.8,83.6 L44.1,79.6 L39.3,70.4 L41.5,66.2 L51.9,65.0 L54.4,61.7 L53.1,51.4 L56.6,48.3 L66.7,50.7 L70.2,48.5 L72.5,38.3 L76.9,36.6 L85.6,42.3 L89.7,41.4 L95.3,32.7 L100.0,32.5 L106.2,40.8 L110.3,41.4 L118.6,35.1 L123.1,36.6 L126.1,46.5 L129.8,48.5 L139.7,45.4 L143.4,48.3 L142.8,58.7 L145.6,61.7 L156.0,62.2 L158.5,66.2 L154.4,75.8 L155.9,79.6 L165.5,83.7 L166.5,88.3 L159.4,95.8 Z" stroke="#5C4033" stroke-width="2" fill="#F5F0E8"/>
        <circle cx="100" cy="100" r="49.50964506172839" stroke="#5C4033" stroke-width="1.5" fill="none"/>
        <circle cx="100" cy="100" r="16.321930727023318" stroke="#5C4033" stroke-width="2" fill="#E8DFD0"/>
        <circle cx="100" cy="100" r="6.528772290809328" stroke="#5C4033" stroke-width="1.5" fill="#C4A35A"/>
        <circle cx="132.9" cy="100.0" r="5.472376543209877" stroke="#7A5A47" stroke-width="1" fill="#E8DFD0"/><circle cx="116.5" cy="128.5" r="4.208191872427983" stroke="#7A5A47" stroke-width="1" fill="#E8DFD0"/><circle cx="83.5" cy="128.5" r="6.026568930041153" stroke="#7A5A47" stroke-width="1" fill="#E8DFD0"/><circle cx="67.1" cy="100.0" r="4.751581790123457" stroke="#7A5A47" stroke-width="1" fill="#E8DFD0"/><circle cx="83.5" cy="71.5" r="5.09619341563786" stroke="#7A5A47" stroke-width="1" fill="#E8DFD0"/>
      
  <g stroke="#7A5A47" stroke-width="1" fill="#7A5A47" font-size="9" font-family="Consolas, monospace">
    <line x1="25" y1="185" x2="175" y2="185"/>
    <line x1="25" y1="180" x2="25" y2="190"/>
    <line x1="175" y1="180" x2="175" y2="190"/>
    <text x="100" y="195" text-anchor="middle">13.8×3.1cm</text>
  </g>
  <text x="100" y="172" text-anchor="middle" fill="#5C4033" font-size="11" font-family="SimSun, STSong, serif" font-weight="bold">带传动轮丁</text>
</svg>