<svg xmlns="http://www.w3.org/2000/svg" viewBox="0 0 200 200">
  <defs>
    <pattern id="grid-gear-021" width="10" height="10" patternUnits="userSpaceOnUse">
      <path d="M 10 0 L 0 0 0 10" fill="none" stroke="rgba(92, 64, 51, 0.05)" stroke-width="0.5"/>
    </pattern>
  </defs>
  <rect width="200" height="200" fill="url(#grid-gear-021)"/>
  
        <circle cx="100" cy="100" r="68.62658607681756" stroke="#C4A35A" stroke-width="1" stroke-dasharray="4,3" fill="none"/>
        <path d="M153.62658607681755,100 L153.6,100.0 L161.4,105.3 L161.0,108.8 L152.2,112.1 L151.5,115.1 L157.4,122.4 L156.1,125.6 L146.7,126.4 L145.1,129.0 L148.8,137.6 L146.6,140.4 L137.4,138.5 L135.1,140.5 L136.2,149.9 L133.3,151.8 L125.0,147.4 L122.3,148.8 L120.7,158.0 L117.4,159.1 L110.6,152.6 L107.6,153.1 L103.5,161.5 L100.0,161.6 L95.4,153.4 L92.4,153.1 L86.0,160.0 L82.6,159.1 L80.5,150.0 L77.7,148.8 L69.7,153.7 L66.7,151.8 L67.3,142.5 L64.9,140.5 L55.8,142.9 L53.4,140.4 L56.6,131.5 L54.9,129.0 L45.5,128.8 L43.9,125.6 L49.5,118.0 L48.5,115.1 L39.6,112.2 L39.0,108.8 L46.5,103.1 L46.4,100.0 L38.6,94.7 L39.0,91.2 L47.8,87.9 L48.5,84.9 L42.6,77.6 L43.9,74.4 L53.3,73.6 L54.9,71.0 L51.2,62.4 L53.4,59.6 L62.6,61.5 L64.9,59.5 L63.8,50.1 L66.7,48.2 L75.0,52.6 L77.7,51.2 L79.3,42.0 L82.6,40.9 L89.4,47.4 L92.4,46.9 L96.5,38.5 L100.0,38.4 L104.6,46.6 L107.6,46.9 L114.0,40.0 L117.4,40.9 L119.5,50.0 L122.3,51.2 L130.3,46.3 L133.3,48.2 L132.7,57.5 L135.1,59.5 L144.2,57.1 L146.6,59.6 L143.4,68.5 L145.1,71.0 L154.5,71.2 L156.1,74.4 L150.5,82.0 L151.5,84.9 L160.4,87.8 L161.0,91.2 L153.5,96.9 Z" stroke="#5C4033" stroke-width="2" fill="#F5F0E8"/>
        <circle cx="100" cy="100" r="43.62658607681756" stroke="#5C4033" stroke-width="1.5" fill="none"/>
        <circle cx="100" cy="100" r="17.99031207133059" stroke="#5C4033" stroke-width="2" fill="#E8DFD0"/>
        <circle cx="100" cy="100" r="7.196124828532236" stroke="#5C4033" stroke-width="1.5" fill="#C4A35A"/>
        <circle cx="130.8" cy="100.0" r="4.281532921810699" stroke="#7A5A47" stroke-width="1" fill="#E8DFD0"/><circle cx="115.4" cy="126.7" r="4.171669238683128" stroke="#7A5A47" stroke-width="1" fill="#E8DFD0"/><circle cx="84.6" cy="126.7" r="5.329552469135803" stroke="#7A5A47" stroke-width="1" fill="#E8DFD0"/><circle cx="69.2" cy="100.0" r="4.80147890946502" stroke="#7A5A47" stroke-width="1" fill="#E8DFD0"/>
      
  <g stroke="#7A5A47" stroke-width="1" fill="#7A5A47" font-size="9" font-family="Consolas, monospace">
    <line x1="25" y1="185" x2="175" y2="185"/>
    <line x1="25" y1="180" x2="25" y2="190"/>
    <line x1="175" y1="180" x2="175" y2="190"/>
    <text x="100" y="195" text-anchor="middle">直径 6.9cm</text>
  </g>
  <text x="100" y="172" text-anchor="middle" fill="#5C4033" font-size="11" font-family="SimSun, STSong, serif" font-weight="bold">青铜主齿轮丙</text>
</svg>