<svg xmlns="http://www.w3.org/2000/svg" viewBox="0 0 200 200">
  <defs>
    <pattern id="grid-gear-034" width="10" height="10" patternUnits="userSpaceOnUse">
      <path d="M 10 0 L 0 0 0 10" fill="none" stroke="rgba(92, 64, 51, 0.05)" stroke-width="0.5"/>
    </pattern>
  </defs>
  <rect width="200" height="200" fill="url(#grid-gear-034)"/>
  
        <circle cx="100" cy="100" r="65.43629972565158" stroke="#C4A35A" stroke-width="1" stroke-dasharray="4,3" fill="none"/>
        <path d="M150.43629972565157,100 L150.4,100.0 L158.2,105.0 L157.8,108.3 L149.1,111.4 L148.4,114.2 L154.5,121.2 L153.2,124.3 L143.9,124.8 L142.4,127.3 L146.3,135.7 L144.2,138.3 L135.2,136.2 L133.0,138.1 L134.3,147.3 L131.6,149.2 L123.5,144.6 L121.0,145.9 L119.6,155.0 L116.5,156.1 L110.0,149.4 L107.2,149.9 L103.3,158.3 L100.0,158.4 L95.7,150.3 L92.8,149.9 L86.8,156.9 L83.5,156.1 L81.7,147.0 L79.0,145.9 L71.3,150.9 L68.4,149.2 L69.2,139.9 L67.0,138.1 L58.1,140.7 L55.8,138.3 L59.2,129.6 L57.6,127.3 L48.3,127.3 L46.8,124.3 L52.5,116.9 L51.6,114.2 L42.7,111.6 L42.2,108.3 L49.6,102.9 L49.6,100.0 L41.8,95.0 L42.2,91.7 L50.9,88.6 L51.6,85.8 L45.5,78.8 L46.8,75.7 L56.1,75.2 L57.6,72.7 L53.7,64.3 L55.8,61.7 L64.8,63.8 L67.0,61.9 L65.7,52.7 L68.4,50.8 L76.5,55.4 L79.0,54.1 L80.4,45.0 L83.5,43.9 L90.0,50.6 L92.8,50.1 L96.7,41.7 L100.0,41.6 L104.3,49.7 L107.2,50.1 L113.2,43.1 L116.5,43.9 L118.3,53.0 L121.0,54.1 L128.7,49.1 L131.6,50.8 L130.8,60.1 L133.0,61.9 L141.9,59.3 L144.2,61.7 L140.8,70.4 L142.4,72.7 L151.7,72.7 L153.2,75.7 L147.5,83.1 L148.4,85.8 L157.3,88.4 L157.8,91.7 L150.4,97.1 Z" stroke="#5C4033" stroke-width="2" fill="#F5F0E8"/>
        <circle cx="100" cy="100" r="40.43629972565158" stroke="#5C4033" stroke-width="1.5" fill="none"/>
        <circle cx="100" cy="100" r="15.13695987654321" stroke="#5C4033" stroke-width="2" fill="#E8DFD0"/>
        <circle cx="100" cy="100" r="6.054783950617285" stroke="#5C4033" stroke-width="1.5" fill="#C4A35A"/>
        <circle cx="127.8" cy="100.0" r="5.322132201646091" stroke="#7A5A47" stroke-width="1" fill="#E8DFD0"/><circle cx="113.9" cy="124.1" r="4.785570987654321" stroke="#7A5A47" stroke-width="1" fill="#E8DFD0"/><circle cx="86.1" cy="124.1" r="6.2297196502057615" stroke="#7A5A47" stroke-width="1" fill="#E8DFD0"/><circle cx="72.2" cy="100.0" r="4.256430041152264" stroke="#7A5A47" stroke-width="1" fill="#E8DFD0"/>
      
  <g stroke="#7A5A47" stroke-width="1" fill="#7A5A47" font-size="9" font-family="Consolas, monospace">
    <line x1="25" y1="185" x2="175" y2="185"/>
    <line x1="25" y1="180" x2="25" y2="190"/>
    <line x1="175" y1="180" x2="175" y2="190"/>
    <text x="100" y="195" text-anchor="middle">直径 6cm</text>
  </g>
  <text x="100" y="172" text-anchor="middle" fill="#5C4033" font-size="11" font-family="SimSun, STSong, serif" font-weight="bold">铜链传动丁</text>
</svg>