<svg xmlns="http://www.w3.org/2000/svg" viewBox="0 0 200 200">
  <defs>
    <pattern id="grid-gear-002" width="10" height="10" patternUnits="userSpaceOnUse">
      <path d="M 10 0 L 0 0 0 10" fill="none" stroke="rgba(92, 64, 51, 0.05)" stroke-width="0.5"/>
    </pattern>
  </defs>
  <rect width="200" height="200" fill="url(#grid-gear-002)"/>
  
        <circle cx="100" cy="100" r="68.41829561042525" stroke="#C4A35A" stroke-width="1" stroke-dasharray="4,3" fill="none"/>
        <path d="M153.41829561042525,100 L153.4,100.0 L160.8,108.9 L159.6,114.7 L149.5,120.1 L147.3,124.8 L149.7,136.1 L146.0,140.7 L134.4,140.8 L130.3,144.0 L127.2,155.1 L121.8,157.4 L111.5,152.2 L106.4,153.0 L98.5,161.4 L92.6,161.0 L86.0,151.5 L81.1,149.9 L70.2,153.7 L65.1,150.5 L63.6,139.1 L60.0,135.4 L48.6,133.7 L45.6,128.5 L49.6,117.7 L48.1,112.8 L38.9,105.9 L38.6,100.0 L47.1,92.3 L48.1,87.2 L43.1,76.8 L45.6,71.5 L56.8,68.6 L60.0,64.6 L60.4,53.1 L65.1,49.5 L76.3,52.1 L81.1,50.1 L86.7,40.0 L92.6,39.0 L101.3,46.6 L106.4,47.0 L116.1,40.7 L121.8,42.6 L126.0,53.3 L130.3,56.0 L141.8,55.0 L146.0,59.3 L144.7,70.7 L147.3,75.2 L157.9,79.6 L159.6,85.3 L153.2,94.8 Z" stroke="#5C4033" stroke-width="2" fill="#F5F0E8"/>
        <circle cx="100" cy="100" r="43.41829561042524" stroke="#5C4033" stroke-width="1.5" fill="none"/>
        <circle cx="100" cy="100" r="20.6806841563786" stroke="#5C4033" stroke-width="2" fill="#E8DFD0"/>
        <circle cx="100" cy="100" r="8.27227366255144" stroke="#5C4033" stroke-width="1.5" fill="#C4A35A"/>
        <circle cx="132.0" cy="100.0" r="5.8556198559670785" stroke="#7A5A47" stroke-width="1" fill="#E8DFD0"/><circle cx="116.0" cy="127.8" r="4.754243827160494" stroke="#7A5A47" stroke-width="1" fill="#E8DFD0"/><circle cx="84.0" cy="127.8" r="5.855799897119342" stroke="#7A5A47" stroke-width="1" fill="#E8DFD0"/><circle cx="68.0" cy="100.0" r="6.42880658436214" stroke="#7A5A47" stroke-width="1" fill="#E8DFD0"/><circle cx="84.0" cy="72.2" r="4.964004629629629" stroke="#7A5A47" stroke-width="1" fill="#E8DFD0"/>
      
  <g stroke="#7A5A47" stroke-width="1" fill="#7A5A47" font-size="9" font-family="Consolas, monospace">
    <line x1="25" y1="185" x2="175" y2="185"/>
    <line x1="25" y1="180" x2="25" y2="190"/>
    <line x1="175" y1="180" x2="175" y2="190"/>
    <text x="100" y="195" text-anchor="middle">22.5×10.7cm</text>
  </g>
  <text x="100" y="172" text-anchor="middle" fill="#5C4033" font-size="11" font-family="SimSun, STSong, serif" font-weight="bold">铜制从动齿轮</text>
</svg>