<svg xmlns="http://www.w3.org/2000/svg" viewBox="0 0 200 200">
  <defs>
    <pattern id="grid-gear-023" width="10" height="10" patternUnits="userSpaceOnUse">
      <path d="M 10 0 L 0 0 0 10" fill="none" stroke="rgba(92, 64, 51, 0.05)" stroke-width="0.5"/>
    </pattern>
  </defs>
  <rect width="200" height="200" fill="url(#grid-gear-023)"/>
  
        <circle cx="100" cy="100" r="69.66319444444444" stroke="#C4A35A" stroke-width="1" stroke-dasharray="4,3" fill="none"/>
        <path d="M154.66319444444446,100 L154.7,100.0 L162.3,106.6 L161.7,110.9 L152.5,115.1 L151.4,118.7 L156.3,127.5 L154.3,131.3 L144.2,132.1 L141.9,135.1 L143.5,145.1 L140.3,148.0 L130.6,145.3 L127.3,147.3 L125.5,157.2 L121.4,158.9 L113.2,153.0 L109.5,153.8 L104.4,162.5 L100.0,162.7 L94.3,154.4 L90.5,153.8 L82.7,160.2 L78.6,158.9 L76.0,149.1 L72.7,147.3 L63.2,150.7 L59.7,148.0 L60.7,138.0 L58.1,135.1 L48.0,135.0 L45.7,131.3 L50.1,122.2 L48.6,118.7 L39.2,115.2 L38.3,110.9 L45.5,103.8 L45.3,100.0 L37.7,93.4 L38.3,89.1 L47.5,84.9 L48.6,81.3 L43.7,72.5 L45.7,68.7 L55.8,67.9 L58.1,64.9 L56.5,54.9 L59.7,52.0 L69.4,54.7 L72.7,52.7 L74.5,42.8 L78.6,41.1 L86.8,47.0 L90.5,46.2 L95.6,37.5 L100.0,37.3 L105.7,45.6 L109.5,46.2 L117.3,39.8 L121.4,41.1 L124.0,50.9 L127.3,52.7 L136.8,49.3 L140.3,52.0 L139.3,62.0 L141.9,64.9 L152.0,65.0 L154.3,68.7 L149.9,77.8 L151.4,81.3 L160.8,84.8 L161.7,89.1 L154.5,96.2 Z" stroke="#5C4033" stroke-width="2" fill="#F5F0E8"/>
        <circle cx="100" cy="100" r="44.66319444444444" stroke="#5C4033" stroke-width="1.5" fill="none"/>
        <circle cx="100" cy="100" r="19.48473936899863" stroke="#5C4033" stroke-width="2" fill="#E8DFD0"/>
        <circle cx="100" cy="100" r="7.793895747599452" stroke="#5C4033" stroke-width="1.5" fill="#C4A35A"/>
        <circle cx="132.1" cy="100.0" r="5.726774691358024" stroke="#7A5A47" stroke-width="1" fill="#E8DFD0"/><circle cx="116.0" cy="127.8" r="6.365367798353909" stroke="#7A5A47" stroke-width="1" fill="#E8DFD0"/><circle cx="84.0" cy="127.8" r="5.919855967078189" stroke="#7A5A47" stroke-width="1" fill="#E8DFD0"/><circle cx="67.9" cy="100.0" r="5.214313271604938" stroke="#7A5A47" stroke-width="1" fill="#E8DFD0"/>
      
  <g stroke="#7A5A47" stroke-width="1" fill="#7A5A47" font-size="9" font-family="Consolas, monospace">
    <line x1="25" y1="185" x2="175" y2="185"/>
    <line x1="25" y1="180" x2="25" y2="190"/>
    <line x1="175" y1="180" x2="175" y2="190"/>
    <text x="100" y="195" text-anchor="middle">直径 6.8cm</text>
  </g>
  <text x="100" y="172" text-anchor="middle" fill="#5C4033" font-size="11" font-family="SimSun, STSong, serif" font-weight="bold">曲柄连杆丙</text>
</svg>