<svg xmlns="http://www.w3.org/2000/svg" viewBox="0 0 200 200">
  <defs>
    <pattern id="grid-gear-007" width="10" height="10" patternUnits="userSpaceOnUse">
      <path d="M 10 0 L 0 0 0 10" fill="none" stroke="rgba(92, 64, 51, 0.05)" stroke-width="0.5"/>
    </pattern>
  </defs>
  <rect width="200" height="200" fill="url(#grid-gear-007)"/>
  
        <circle cx="100" cy="100" r="68.26384602194787" stroke="#C4A35A" stroke-width="1" stroke-dasharray="4,3" fill="none"/>
        <path d="M153.26384602194787,100 L153.3,100.0 L160.9,106.8 L160.2,111.3 L151.0,115.5 L149.7,119.2 L154.3,128.3 L152.1,132.3 L141.9,132.9 L139.4,135.9 L140.4,146.0 L136.9,148.9 L127.2,145.8 L123.7,147.7 L121.1,157.5 L116.8,158.9 L108.8,152.5 L104.9,153.0 L98.9,161.3 L94.3,161.0 L89.2,152.2 L85.4,151.2 L76.8,156.7 L72.7,154.8 L71.1,144.8 L67.9,142.5 L57.9,144.5 L54.7,141.3 L56.9,131.3 L54.7,128.0 L44.7,126.3 L42.9,122.1 L48.5,113.6 L47.6,109.8 L38.9,104.5 L38.7,100.0 L47.1,94.1 L47.6,90.2 L41.4,82.1 L42.9,77.9 L52.8,75.4 L54.7,72.0 L51.8,62.2 L54.7,58.7 L64.8,60.0 L67.9,57.5 L68.7,47.3 L72.7,45.2 L81.7,50.0 L85.4,48.8 L89.9,39.6 L94.3,39.0 L101.0,46.7 L104.9,47.0 L112.4,40.0 L116.8,41.1 L120.2,50.7 L123.7,52.3 L133.2,48.5 L136.9,51.1 L136.6,61.3 L139.4,64.1 L149.6,64.0 L152.1,67.7 L148.1,77.1 L149.7,80.8 L159.2,84.3 L160.2,88.7 L153.1,96.1 Z" stroke="#5C4033" stroke-width="2" fill="#F5F0E8"/>
        <circle cx="100" cy="100" r="43.26384602194787" stroke="#5C4033" stroke-width="1.5" fill="none"/>
        <circle cx="100" cy="100" r="24.145061728395063" stroke="#5C4033" stroke-width="2" fill="#E8DFD0"/>
        <circle cx="100" cy="100" r="9.658024691358026" stroke="#5C4033" stroke-width="1.5" fill="#C4A35A"/>
        <circle cx="133.7" cy="100.0" r="4.98289609053498" stroke="#7A5A47" stroke-width="1" fill="#E8DFD0"/><circle cx="116.9" cy="129.2" r="5.550501543209877" stroke="#7A5A47" stroke-width="1" fill="#E8DFD0"/><circle cx="83.1" cy="129.2" r="4.848816872427983" stroke="#7A5A47" stroke-width="1" fill="#E8DFD0"/>
      
  <g stroke="#7A5A47" stroke-width="1" fill="#7A5A47" font-size="9" font-family="Consolas, monospace">
    <line x1="25" y1="185" x2="175" y2="185"/>
    <line x1="25" y1="180" x2="25" y2="190"/>
    <line x1="175" y1="180" x2="175" y2="190"/>
    <text x="100" y="195" text-anchor="middle">直径 7.9cm</text>
  </g>
  <text x="100" y="172" text-anchor="middle" fill="#5C4033" font-size="11" font-family="SimSun, STSong, serif" font-weight="bold">蜗杆传动</text>
</svg>