<svg xmlns="http://www.w3.org/2000/svg" viewBox="0 0 200 200">
  <defs>
    <pattern id="grid-gear-011" width="10" height="10" patternUnits="userSpaceOnUse">
      <path d="M 10 0 L 0 0 0 10" fill="none" stroke="rgba(92, 64, 51, 0.05)" stroke-width="0.5"/>
    </pattern>
  </defs>
  <rect width="200" height="200" fill="url(#grid-gear-011)"/>
  
        <circle cx="100" cy="100" r="70.00643004115227" stroke="#C4A35A" stroke-width="1" stroke-dasharray="4,3" fill="none"/>
        <path d="M155.00643004115227,100 L155.0,100.0 L162.5,107.9 L161.6,113.1 L151.9,118.1 L150.3,122.4 L153.9,132.6 L151.0,137.0 L140.1,137.7 L136.8,140.9 L136.0,151.7 L131.5,154.6 L121.3,150.7 L117.0,152.3 L111.8,161.9 L106.6,162.7 L98.8,155.0 L94.3,154.7 L85.6,161.3 L80.5,159.9 L76.6,149.8 L72.5,147.6 L61.9,150.2 L57.8,146.8 L58.4,135.9 L55.5,132.3 L44.8,130.4 L42.4,125.6 L47.3,115.9 L46.2,111.4 L37.2,105.3 L37.0,100.0 L45.4,93.1 L46.2,88.6 L40.5,79.3 L42.4,74.4 L52.9,71.5 L55.5,67.7 L54.1,56.9 L57.8,53.2 L68.6,54.8 L72.5,52.4 L75.6,41.9 L80.5,40.1 L89.7,46.0 L94.3,45.3 L101.3,37.0 L106.6,37.3 L112.6,46.4 L117.0,47.7 L126.8,43.0 L131.5,45.4 L133.3,56.2 L136.8,59.1 L147.7,58.8 L151.0,63.0 L148.2,73.5 L150.3,77.6 L160.3,81.8 L161.6,86.9 L154.8,95.4 Z" stroke="#5C4033" stroke-width="2" fill="#F5F0E8"/>
        <circle cx="100" cy="100" r="45.006430041152264" stroke="#5C4033" stroke-width="1.5" fill="none"/>
        <circle cx="100" cy="100" r="21.919024348422496" stroke="#5C4033" stroke-width="2" fill="#E8DFD0"/>
        <circle cx="100" cy="100" r="8.767609739368998" stroke="#5C4033" stroke-width="1.5" fill="#C4A35A"/>
        <circle cx="133.5" cy="100.0" r="5.1283564814814815" stroke="#7A5A47" stroke-width="1" fill="#E8DFD0"/><circle cx="116.7" cy="129.0" r="5.477597736625515" stroke="#7A5A47" stroke-width="1" fill="#E8DFD0"/><circle cx="83.3" cy="129.0" r="4.77051183127572" stroke="#7A5A47" stroke-width="1" fill="#E8DFD0"/><circle cx="66.5" cy="100.0" r="4.1645061728395065" stroke="#7A5A47" stroke-width="1" fill="#E8DFD0"/>
      
  <g stroke="#7A5A47" stroke-width="1" fill="#7A5A47" font-size="9" font-family="Consolas, monospace">
    <line x1="25" y1="185" x2="175" y2="185"/>
    <line x1="25" y1="180" x2="25" y2="190"/>
    <line x1="175" y1="180" x2="175" y2="190"/>
    <text x="100" y="195" text-anchor="middle">直径 7.6cm</text>
  </g>
  <text x="100" y="172" text-anchor="middle" fill="#5C4033" font-size="11" font-family="SimSun, STSong, serif" font-weight="bold">青铜主齿轮乙</text>
</svg>