<svg xmlns="http://www.w3.org/2000/svg" viewBox="0 0 200 200">
  <defs>
    <pattern id="grid-gear-013" width="10" height="10" patternUnits="userSpaceOnUse">
      <path d="M 10 0 L 0 0 0 10" fill="none" stroke="rgba(92, 64, 51, 0.05)" stroke-width="0.5"/>
    </pattern>
  </defs>
  <rect width="200" height="200" fill="url(#grid-gear-013)"/>
  
        <circle cx="100" cy="100" r="67.99022633744856" stroke="#C4A35A" stroke-width="1" stroke-dasharray="4,3" fill="none"/>
        <path d="M152.99022633744858,100 L153.0,100.0 L160.5,107.6 L159.7,112.7 L150.0,117.4 L148.4,121.6 L152.2,131.6 L149.3,135.8 L138.6,136.3 L135.5,139.4 L134.8,150.1 L130.5,152.8 L120.5,148.8 L116.4,150.4 L111.4,159.9 L106.4,160.7 L98.9,153.0 L94.5,152.7 L86.1,159.4 L81.2,158.0 L77.4,147.9 L73.5,145.9 L63.1,148.6 L59.2,145.3 L59.9,134.6 L57.1,131.1 L46.6,129.4 L44.3,124.8 L49.3,115.3 L48.2,111.0 L39.2,105.1 L39.0,100.0 L47.4,93.4 L48.2,89.0 L42.4,79.9 L44.3,75.2 L54.7,72.5 L57.1,68.9 L55.5,58.2 L59.2,54.7 L69.8,56.5 L73.5,54.1 L76.4,43.8 L81.2,42.0 L90.1,47.9 L94.5,47.3 L101.3,39.0 L106.4,39.3 L112.1,48.4 L116.4,49.6 L126.0,44.8 L130.5,47.2 L132.0,57.8 L135.5,60.6 L146.2,60.1 L149.3,64.2 L146.4,74.5 L148.4,78.4 L158.4,82.4 L159.7,87.3 L152.8,95.6 Z" stroke="#5C4033" stroke-width="2" fill="#F5F0E8"/>
        <circle cx="100" cy="100" r="42.99022633744856" stroke="#5C4033" stroke-width="1.5" fill="none"/>
        <circle cx="100" cy="100" r="19.208376200274348" stroke="#5C4033" stroke-width="2" fill="#E8DFD0"/>
        <circle cx="100" cy="100" r="7.683350480109739" stroke="#5C4033" stroke-width="1.5" fill="#C4A35A"/>
        <circle cx="131.1" cy="100.0" r="5.39849537037037" stroke="#7A5A47" stroke-width="1" fill="#E8DFD0"/><circle cx="115.5" cy="126.9" r="4.03940329218107" stroke="#7A5A47" stroke-width="1" fill="#E8DFD0"/><circle cx="84.5" cy="126.9" r="5.123984053497942" stroke="#7A5A47" stroke-width="1" fill="#E8DFD0"/><circle cx="68.9" cy="100.0" r="6.809645061728395" stroke="#7A5A47" stroke-width="1" fill="#E8DFD0"/>
      
  <g stroke="#7A5A47" stroke-width="1" fill="#7A5A47" font-size="9" font-family="Consolas, monospace">
    <line x1="25" y1="185" x2="175" y2="185"/>
    <line x1="25" y1="180" x2="25" y2="190"/>
    <line x1="175" y1="180" x2="175" y2="190"/>
    <text x="100" y="195" text-anchor="middle">19.9×2.7cm</text>
  </g>
  <text x="100" y="172" text-anchor="middle" fill="#5C4033" font-size="11" font-family="SimSun, STSong, serif" font-weight="bold">曲柄连杆乙</text>
</svg>