<svg xmlns="http://www.w3.org/2000/svg" viewBox="0 0 200 200">
  <defs>
    <pattern id="grid-gear-003" width="10" height="10" patternUnits="userSpaceOnUse">
      <path d="M 10 0 L 0 0 0 10" fill="none" stroke="rgba(92, 64, 51, 0.05)" stroke-width="0.5"/>
    </pattern>
  </defs>
  <rect width="200" height="200" fill="url(#grid-gear-003)"/>
  
        <circle cx="100" cy="100" r="69.50677297668038" stroke="#C4A35A" stroke-width="1" stroke-dasharray="4,3" fill="none"/>
        <path d="M154.5067729766804,100 L154.5,100.0 L162.1,106.9 L161.4,111.5 L152.1,115.9 L150.8,119.7 L155.4,128.9 L153.1,132.9 L142.9,133.6 L140.3,136.7 L141.2,147.0 L137.7,149.9 L127.8,146.9 L124.3,148.8 L121.5,158.7 L117.1,160.1 L109.0,153.8 L105.0,154.3 L98.8,162.5 L94.2,162.2 L89.0,153.4 L85.1,152.4 L76.3,157.9 L72.1,156.0 L70.5,145.8 L67.2,143.5 L57.0,145.4 L53.8,142.1 L55.9,132.0 L53.7,128.7 L43.5,126.8 L41.7,122.6 L47.3,113.9 L46.4,110.0 L37.7,104.6 L37.5,100.0 L45.8,94.0 L46.4,90.0 L40.2,81.8 L41.7,77.4 L51.7,74.8 L53.7,71.3 L50.8,61.4 L53.8,57.9 L64.0,59.0 L67.2,56.5 L68.1,46.3 L72.1,44.0 L81.3,48.8 L85.1,47.6 L89.7,38.4 L94.2,37.8 L101.0,45.5 L105.0,45.7 L112.6,38.8 L117.1,39.9 L120.6,49.5 L124.3,51.2 L133.9,47.5 L137.7,50.1 L137.5,60.4 L140.3,63.3 L150.6,63.3 L153.1,67.1 L149.2,76.6 L150.8,80.3 L160.4,84.0 L161.4,88.5 L154.4,96.0 Z" stroke="#5C4033" stroke-width="2" fill="#F5F0E8"/>
        <circle cx="100" cy="100" r="44.50677297668038" stroke="#5C4033" stroke-width="1.5" fill="none"/>
        <circle cx="100" cy="100" r="24.60866769547325" stroke="#5C4033" stroke-width="2" fill="#E8DFD0"/>
        <circle cx="100" cy="100" r="9.8434670781893" stroke="#5C4033" stroke-width="1.5" fill="#C4A35A"/>
        <circle cx="134.6" cy="100.0" r="6.071051954732511" stroke="#7A5A47" stroke-width="1" fill="#E8DFD0"/><circle cx="117.3" cy="129.9" r="4.488194444444445" stroke="#7A5A47" stroke-width="1" fill="#E8DFD0"/><circle cx="82.7" cy="129.9" r="6.330491255144032" stroke="#7A5A47" stroke-width="1" fill="#E8DFD0"/>
      
  <g stroke="#7A5A47" stroke-width="1" fill="#7A5A47" font-size="9" font-family="Consolas, monospace">
    <line x1="25" y1="185" x2="175" y2="185"/>
    <line x1="25" y1="180" x2="25" y2="190"/>
    <line x1="175" y1="180" x2="175" y2="190"/>
    <text x="100" y="195" text-anchor="middle">22.3×7.2cm</text>
  </g>
  <text x="100" y="172" text-anchor="middle" fill="#5C4033" font-size="11" font-family="SimSun, STSong, serif" font-weight="bold">曲柄连杆</text>
</svg>