<svg xmlns="http://www.w3.org/2000/svg" viewBox="0 0 200 200">
  <defs>
    <pattern id="grid-gear-035" width="10" height="10" patternUnits="userSpaceOnUse">
      <path d="M 10 0 L 0 0 0 10" fill="none" stroke="rgba(92, 64, 51, 0.05)" stroke-width="0.5"/>
    </pattern>
  </defs>
  <rect width="200" height="200" fill="url(#grid-gear-035)"/>
  
        <circle cx="100" cy="100" r="67.34782235939643" stroke="#C4A35A" stroke-width="1" stroke-dasharray="4,3" fill="none"/>
        <path d="M152.34782235939645,100 L152.3,100.0 L160.1,105.2 L159.7,108.6 L151.0,111.9 L150.2,114.7 L156.2,121.9 L154.9,125.1 L145.6,125.7 L144.0,128.3 L147.8,136.9 L145.6,139.5 L136.5,137.5 L134.3,139.6 L135.5,148.8 L132.6,150.8 L124.4,146.3 L121.7,147.6 L120.3,156.8 L117.0,157.9 L110.4,151.3 L107.4,151.8 L103.4,160.2 L100.0,160.3 L95.5,152.2 L92.6,151.8 L86.3,158.8 L83.0,157.9 L81.0,148.8 L78.3,147.6 L70.3,152.5 L67.4,150.8 L68.0,141.5 L65.7,139.6 L56.7,142.1 L54.4,139.5 L57.6,130.8 L56.0,128.3 L46.6,128.2 L45.1,125.1 L50.7,117.6 L49.8,114.7 L40.9,112.0 L40.3,108.6 L47.7,103.0 L47.7,100.0 L39.9,94.8 L40.3,91.4 L49.0,88.1 L49.8,85.3 L43.8,78.1 L45.1,74.9 L54.4,74.3 L56.0,71.7 L52.2,63.1 L54.4,60.5 L63.5,62.5 L65.7,60.4 L64.5,51.2 L67.4,49.2 L75.6,53.7 L78.3,52.4 L79.7,43.2 L83.0,42.1 L89.6,48.7 L92.6,48.2 L96.6,39.8 L100.0,39.7 L104.5,47.8 L107.4,48.2 L113.7,41.2 L117.0,42.1 L119.0,51.2 L121.7,52.4 L129.7,47.5 L132.6,49.2 L132.0,58.5 L134.3,60.4 L143.3,57.9 L145.6,60.5 L142.4,69.2 L144.0,71.7 L153.4,71.8 L154.9,74.9 L149.3,82.4 L150.2,85.3 L159.1,88.0 L159.7,91.4 L152.3,97.0 Z" stroke="#5C4033" stroke-width="2" fill="#F5F0E8"/>
        <circle cx="100" cy="100" r="42.34782235939643" stroke="#5C4033" stroke-width="1.5" fill="none"/>
        <circle cx="100" cy="100" r="24.20897633744856" stroke="#5C4033" stroke-width="2" fill="#E8DFD0"/>
        <circle cx="100" cy="100" r="9.683590534979425" stroke="#5C4033" stroke-width="1.5" fill="#C4A35A"/>
        <circle cx="133.3" cy="100.0" r="6.006700102880659" stroke="#7A5A47" stroke-width="1" fill="#E8DFD0"/><circle cx="116.6" cy="128.8" r="5.951620370370371" stroke="#7A5A47" stroke-width="1" fill="#E8DFD0"/><circle cx="83.4" cy="128.8" r="6.65502829218107" stroke="#7A5A47" stroke-width="1" fill="#E8DFD0"/><circle cx="66.7" cy="100.0" r="6.052109053497943" stroke="#7A5A47" stroke-width="1" fill="#E8DFD0"/>
      
  <g stroke="#7A5A47" stroke-width="1" fill="#7A5A47" font-size="9" font-family="Consolas, monospace">
    <line x1="25" y1="185" x2="175" y2="185"/>
    <line x1="25" y1="180" x2="25" y2="190"/>
    <line x1="175" y1="180" x2="175" y2="190"/>
    <text x="100" y="195" text-anchor="middle">14.8×6.9cm</text>
  </g>
  <text x="100" y="172" text-anchor="middle" fill="#5C4033" font-size="11" font-family="SimSun, STSong, serif" font-weight="bold">差动齿轮丁</text>
</svg>