<svg xmlns="http://www.w3.org/2000/svg" viewBox="0 0 100 100">
  <defs>
    <pattern id="tg-gear-012" width="8" height="8" patternUnits="userSpaceOnUse">
      <path d="M 8 0 L 0 0 0 8" fill="none" stroke="rgba(92, 64, 51, 0.06)" stroke-width="0.5"/>
    </pattern>
  </defs>
  <rect width="100" height="100" fill="url(#tg-gear-012)"/>
  <circle cx="50" cy="50" r="25" stroke="#5C4033" stroke-width="1.5" fill="#F5F0E8"/>
        <circle cx="50" cy="50" r="8" stroke="#5C4033" stroke-width="1" fill="#C4A35A"/>
        <rect x="68" y="48" width="4" height="8" fill="#7A5A47" transform="rotate(0 70 50)"/><rect x="62.14213562373095" y="62.14213562373095" width="4" height="8" fill="#7A5A47" transform="rotate(45 64.14213562373095 64.14213562373095)"/><rect x="48" y="68" width="4" height="8" fill="#7A5A47" transform="rotate(90 50 70)"/><rect x="33.85786437626905" y="62.14213562373095" width="4" height="8" fill="#7A5A47" transform="rotate(135 35.85786437626905 64.14213562373095)"/><rect x="28" y="48" width="4" height="8" fill="#7A5A47" transform="rotate(180 30 50)"/><rect x="33.85786437626905" y="33.85786437626905" width="4" height="8" fill="#7A5A47" transform="rotate(225 35.85786437626905 35.85786437626905)"/><rect x="47.99999999999999" y="28" width="4" height="8" fill="#7A5A47" transform="rotate(270 49.99999999999999 30)"/><rect x="62.14213562373095" y="33.85786437626905" width="4" height="8" fill="#7A5A47" transform="rotate(315 64.14213562373095 35.85786437626905)"/>
  <text x="50" y="94" text-anchor="middle" fill="#7A5A47" font-size="6" font-family="Consolas, monospace">MJ-GE-012</text>
</svg>