<svg xmlns="http://www.w3.org/2000/svg" viewBox="0 0 200 200">
  <defs>
    <pattern id="grid-gear-004" width="10" height="10" patternUnits="userSpaceOnUse">
      <path d="M 10 0 L 0 0 0 10" fill="none" stroke="rgba(92, 64, 51, 0.05)" stroke-width="0.5"/>
    </pattern>
  </defs>
  <rect width="200" height="200" fill="url(#grid-gear-004)"/>
  
        <circle cx="100" cy="100" r="74.03485082304528" stroke="#C4A35A" stroke-width="1" stroke-dasharray="4,3" fill="none"/>
        <path d="M159.03485082304528,100 L159.0,100.0 L166.8,106.0 L166.3,110.0 L157.4,114.0 L156.4,117.4 L162.0,125.4 L160.4,129.1 L150.7,130.3 L148.8,133.3 L151.8,142.6 L149.1,145.6 L139.5,143.9 L136.8,146.2 L136.9,155.9 L133.5,158.1 L124.8,153.6 L121.6,155.0 L118.8,164.3 L114.9,165.4 L107.9,158.5 L104.4,158.9 L99.0,167.0 L95.0,166.8 L90.3,158.2 L86.9,157.6 L79.3,163.8 L75.5,162.4 L73.6,152.8 L70.5,151.1 L61.4,154.8 L58.2,152.4 L59.2,142.7 L56.7,140.2 L47.0,141.0 L44.6,137.8 L48.4,128.7 L46.8,125.6 L37.2,123.6 L35.9,119.8 L42.3,112.3 L41.6,108.8 L33.1,104.0 L33.0,100.0 L41.2,94.7 L41.6,91.2 L34.9,84.1 L35.9,80.2 L45.4,77.6 L46.8,74.4 L42.5,65.6 L44.6,62.2 L54.4,62.5 L56.7,59.8 L55.1,50.2 L58.2,47.6 L67.5,50.7 L70.5,48.9 L71.8,39.2 L75.5,37.6 L83.4,43.3 L86.9,42.4 L91.0,33.6 L95.0,33.2 L100.9,41.0 L104.4,41.1 L111.0,33.9 L114.9,34.6 L118.2,43.9 L121.6,45.0 L130.0,40.0 L133.5,41.9 L134.0,51.7 L136.8,53.8 L146.3,51.5 L149.1,54.4 L146.7,63.9 L148.8,66.7 L158.5,67.4 L160.4,70.9 L155.3,79.3 L156.4,82.6 L165.6,86.1 L166.3,90.0 L158.9,96.5 Z" stroke="#5C4033" stroke-width="2" fill="#F5F0E8"/>
        <circle cx="100" cy="100" r="49.03485082304527" stroke="#5C4033" stroke-width="1.5" fill="none"/>
        <circle cx="100" cy="100" r="20.260716735253773" stroke="#5C4033" stroke-width="2" fill="#E8DFD0"/>
        <circle cx="100" cy="100" r="8.104286694101509" stroke="#5C4033" stroke-width="1.5" fill="#C4A35A"/>
        <circle cx="134.6" cy="100.0" r="4.635493827160494" stroke="#7A5A47" stroke-width="1" fill="#E8DFD0"/><circle cx="117.3" cy="130.0" r="5.362049897119341" stroke="#7A5A47" stroke-width="1" fill="#E8DFD0"/><circle cx="82.7" cy="130.0" r="4.06005658436214" stroke="#7A5A47" stroke-width="1" fill="#E8DFD0"/>
      
  <g stroke="#7A5A47" stroke-width="1" fill="#7A5A47" font-size="9" font-family="Consolas, monospace">
    <line x1="25" y1="185" x2="175" y2="185"/>
    <line x1="25" y1="180" x2="25" y2="190"/>
    <line x1="175" y1="180" x2="175" y2="190"/>
    <text x="100" y="195" text-anchor="middle">22×3.8cm</text>
  </g>
  <text x="100" y="172" text-anchor="middle" fill="#5C4033" font-size="11" font-family="SimSun, STSong, serif" font-weight="bold">铜链传动</text>
</svg>