<svg xmlns="http://www.w3.org/2000/svg" viewBox="0 0 200 200">
  <defs>
    <pattern id="grid-gear-019" width="10" height="10" patternUnits="userSpaceOnUse">
      <path d="M 10 0 L 0 0 0 10" fill="none" stroke="rgba(92, 64, 51, 0.05)" stroke-width="0.5"/>
    </pattern>
  </defs>
  <rect width="200" height="200" fill="url(#grid-gear-019)"/>
  
        <circle cx="100" cy="100" r="71.4812671467764" stroke="#C4A35A" stroke-width="1" stroke-dasharray="4,3" fill="none"/>
        <path d="M156.48126714677642,100 L156.5,100.0 L164.2,106.4 L163.6,110.6 L154.5,114.8 L153.4,118.3 L158.6,126.9 L156.7,130.7 L146.8,131.7 L144.6,134.7 L146.7,144.5 L143.7,147.4 L133.9,145.1 L130.9,147.3 L129.7,157.2 L125.9,159.1 L117.5,153.7 L113.9,154.8 L109.6,163.8 L105.3,164.3 L99.1,156.5 L95.3,156.3 L88.3,163.4 L84.2,162.5 L80.8,153.1 L77.3,151.7 L68.4,156.2 L64.7,154.0 L64.6,144.0 L61.7,141.6 L51.8,142.9 L49.1,139.6 L52.2,130.1 L50.3,126.9 L40.5,124.9 L39.0,120.9 L45.0,113.0 L44.3,109.3 L35.7,104.3 L35.5,100.0 L43.8,94.4 L44.3,90.7 L37.8,83.1 L39.0,79.1 L48.7,76.5 L50.3,73.1 L46.6,63.8 L49.1,60.4 L59.1,61.1 L61.7,58.4 L61.2,48.5 L64.7,46.0 L73.9,49.9 L77.3,48.3 L80.1,38.7 L84.2,37.5 L91.6,44.1 L95.3,43.7 L101.1,35.5 L105.3,35.7 L110.2,44.5 L113.9,45.2 L121.9,39.4 L125.9,40.9 L127.7,50.8 L130.9,52.7 L140.4,49.8 L143.7,52.6 L142.2,62.4 L144.6,65.3 L154.6,65.6 L156.7,69.3 L152.1,78.2 L153.4,81.7 L162.8,85.2 L163.6,89.4 L156.4,96.3 Z" stroke="#5C4033" stroke-width="2" fill="#F5F0E8"/>
        <circle cx="100" cy="100" r="46.4812671467764" stroke="#5C4033" stroke-width="1.5" fill="none"/>
        <circle cx="100" cy="100" r="19.37894375857339" stroke="#5C4033" stroke-width="2" fill="#E8DFD0"/>
        <circle cx="100" cy="100" r="7.751577503429356" stroke="#5C4033" stroke-width="1.5" fill="#C4A35A"/>
        <circle cx="132.9" cy="100.0" r="5.651826131687242" stroke="#7A5A47" stroke-width="1" fill="#E8DFD0"/><circle cx="116.5" cy="128.5" r="5.268814300411522" stroke="#7A5A47" stroke-width="1" fill="#E8DFD0"/><circle cx="83.5" cy="128.5" r="6.875771604938271" stroke="#7A5A47" stroke-width="1" fill="#E8DFD0"/>
      
  <g stroke="#7A5A47" stroke-width="1" fill="#7A5A47" font-size="9" font-family="Consolas, monospace">
    <line x1="25" y1="185" x2="175" y2="185"/>
    <line x1="25" y1="180" x2="25" y2="190"/>
    <line x1="175" y1="180" x2="175" y2="190"/>
    <text x="100" y="195" text-anchor="middle">直径 7.1cm</text>
  </g>
  <text x="100" y="172" text-anchor="middle" fill="#5C4033" font-size="11" font-family="SimSun, STSong, serif" font-weight="bold">带传动轮乙</text>
</svg>