<svg xmlns="http://www.w3.org/2000/svg" viewBox="0 0 200 200">
  <defs>
    <pattern id="grid-gear-025" width="10" height="10" patternUnits="userSpaceOnUse">
      <path d="M 10 0 L 0 0 0 10" fill="none" stroke="rgba(92, 64, 51, 0.05)" stroke-width="0.5"/>
    </pattern>
  </defs>
  <rect width="200" height="200" fill="url(#grid-gear-025)"/>
  
        <circle cx="100" cy="100" r="65.76213134430728" stroke="#C4A35A" stroke-width="1" stroke-dasharray="4,3" fill="none"/>
        <path d="M150.76213134430728,100 L150.8,100.0 L158.6,104.8 L158.2,108.0 L149.6,111.0 L148.9,113.7 L155.1,120.4 L153.9,123.4 L144.7,124.0 L143.4,126.4 L147.5,134.5 L145.6,137.1 L136.6,135.2 L134.6,137.1 L136.5,146.1 L133.9,148.0 L125.8,143.7 L123.4,145.1 L122.7,154.2 L119.7,155.4 L113.0,149.1 L110.3,149.7 L107.2,158.3 L104.0,158.6 L99.3,150.8 L96.5,150.6 L91.2,158.1 L88.0,157.5 L85.6,148.7 L83.0,147.8 L75.9,153.6 L73.0,152.2 L73.0,143.0 L70.7,141.5 L62.3,145.1 L59.9,142.9 L62.4,134.1 L60.6,132.0 L51.5,133.2 L49.8,130.5 L54.6,122.7 L53.4,120.2 L44.4,118.9 L43.4,115.9 L50.2,109.6 L49.7,106.9 L41.3,103.2 L41.2,100.0 L49.4,95.8 L49.7,93.1 L42.6,87.3 L43.4,84.1 L52.4,82.3 L53.4,79.8 L48.2,72.3 L49.8,69.5 L58.9,70.2 L60.6,68.0 L57.6,59.3 L59.9,57.1 L68.5,60.2 L70.7,58.5 L70.2,49.4 L73.0,47.8 L80.4,53.2 L83.0,52.2 L84.9,43.2 L88.0,42.5 L93.8,49.6 L96.5,49.4 L100.8,41.2 L104.0,41.4 L107.6,49.8 L110.3,50.3 L116.6,43.6 L119.7,44.6 L120.9,53.7 L123.4,54.9 L131.2,50.2 L133.9,52.0 L132.6,61.1 L134.6,62.9 L143.5,60.5 L145.6,62.9 L141.9,71.3 L143.4,73.6 L152.5,73.7 L153.9,76.6 L148.1,83.7 L148.9,86.3 L157.7,88.8 L158.2,92.0 L150.7,97.2 Z" stroke="#5C4033" stroke-width="2" fill="#F5F0E8"/>
        <circle cx="100" cy="100" r="40.76213134430727" stroke="#5C4033" stroke-width="1.5" fill="none"/>
        <circle cx="100" cy="100" r="15.696844993141289" stroke="#5C4033" stroke-width="2" fill="#E8DFD0"/>
        <circle cx="100" cy="100" r="6.278737997256516" stroke="#5C4033" stroke-width="1.5" fill="#C4A35A"/>
        <circle cx="128.2" cy="100.0" r="4.769418724279835" stroke="#7A5A47" stroke-width="1" fill="#E8DFD0"/><circle cx="114.1" cy="124.4" r="5.997518004115227" stroke="#7A5A47" stroke-width="1" fill="#E8DFD0"/><circle cx="85.9" cy="124.4" r="4.54891975308642" stroke="#7A5A47" stroke-width="1" fill="#E8DFD0"/><circle cx="71.8" cy="100.0" r="4.136586934156378" stroke="#7A5A47" stroke-width="1" fill="#E8DFD0"/>
      
  <g stroke="#7A5A47" stroke-width="1" fill="#7A5A47" font-size="9" font-family="Consolas, monospace">
    <line x1="25" y1="185" x2="175" y2="185"/>
    <line x1="25" y1="180" x2="25" y2="190"/>
    <line x1="175" y1="180" x2="175" y2="190"/>
    <text x="100" y="195" text-anchor="middle">17.1×11.4cm</text>
  </g>
  <text x="100" y="172" text-anchor="middle" fill="#5C4033" font-size="11" font-family="SimSun, STSong, serif" font-weight="bold">差动齿轮丙</text>
</svg>