<svg xmlns="http://www.w3.org/2000/svg" viewBox="0 0 200 200">
  <defs>
    <pattern id="grid-gear-026" width="10" height="10" patternUnits="userSpaceOnUse">
      <path d="M 10 0 L 0 0 0 10" fill="none" stroke="rgba(92, 64, 51, 0.05)" stroke-width="0.5"/>
    </pattern>
  </defs>
  <rect width="200" height="200" fill="url(#grid-gear-026)"/>
  
        <circle cx="100" cy="100" r="71.50973079561042" stroke="#C4A35A" stroke-width="1" stroke-dasharray="4,3" fill="none"/>
        <path d="M156.50973079561044,100 L156.5,100.0 L164.0,108.1 L163.1,113.4 L153.4,118.6 L151.6,123.0 L155.2,133.4 L152.2,137.9 L141.2,138.7 L137.8,142.0 L136.8,153.0 L132.3,155.9 L121.9,152.1 L117.5,153.7 L112.1,163.4 L106.7,164.2 L98.8,156.5 L94.1,156.2 L85.3,162.8 L80.1,161.4 L75.9,151.1 L71.7,148.9 L61.0,151.4 L56.8,147.9 L57.2,136.9 L54.3,133.2 L43.5,131.1 L41.1,126.2 L45.9,116.3 L44.7,111.7 L35.7,105.4 L35.5,100.0 L43.9,92.9 L44.7,88.3 L39.1,78.8 L41.1,73.8 L51.7,70.7 L54.3,66.8 L53.0,55.8 L56.8,52.1 L67.7,53.6 L71.7,51.1 L75.0,40.5 L80.1,38.6 L89.4,44.5 L94.1,43.8 L101.4,35.5 L106.7,35.8 L112.9,45.0 L117.5,46.3 L127.5,41.6 L132.3,44.1 L134.2,55.0 L137.8,58.0 L148.8,57.8 L152.2,62.1 L149.5,72.8 L151.6,77.0 L161.8,81.4 L163.1,86.6 L156.3,95.3 Z" stroke="#5C4033" stroke-width="2" fill="#F5F0E8"/>
        <circle cx="100" cy="100" r="46.50973079561042" stroke="#5C4033" stroke-width="1.5" fill="none"/>
        <circle cx="100" cy="100" r="24.11934156378601" stroke="#5C4033" stroke-width="2" fill="#E8DFD0"/>
        <circle cx="100" cy="100" r="9.647736625514405" stroke="#5C4033" stroke-width="1.5" fill="#C4A35A"/>
        <circle cx="135.3" cy="100.0" r="6.345550411522634" stroke="#7A5A47" stroke-width="1" fill="#E8DFD0"/><circle cx="117.7" cy="130.6" r="4.598341049382716" stroke="#7A5A47" stroke-width="1" fill="#E8DFD0"/><circle cx="82.3" cy="130.6" r="4.80406378600823" stroke="#7A5A47" stroke-width="1" fill="#E8DFD0"/>
      
  <g stroke="#7A5A47" stroke-width="1" fill="#7A5A47" font-size="9" font-family="Consolas, monospace">
    <line x1="25" y1="185" x2="175" y2="185"/>
    <line x1="25" y1="180" x2="25" y2="190"/>
    <line x1="175" y1="180" x2="175" y2="190"/>
    <text x="100" y="195" text-anchor="middle">16.9×7.9cm</text>
  </g>
  <text x="100" y="172" text-anchor="middle" fill="#5C4033" font-size="11" font-family="SimSun, STSong, serif" font-weight="bold">转向曲柄丙</text>
</svg>