<svg xmlns="http://www.w3.org/2000/svg" viewBox="0 0 200 200">
  <defs>
    <pattern id="grid-gear-020" width="10" height="10" patternUnits="userSpaceOnUse">
      <path d="M 10 0 L 0 0 0 10" fill="none" stroke="rgba(92, 64, 51, 0.05)" stroke-width="0.5"/>
    </pattern>
  </defs>
  <rect width="200" height="200" fill="url(#grid-gear-020)"/>
  
        <circle cx="100" cy="100" r="68.52674897119341" stroke="#C4A35A" stroke-width="1" stroke-dasharray="4,3" fill="none"/>
        <path d="M153.5267489711934,100 L153.5,100.0 L161.3,105.3 L160.9,108.8 L152.1,112.1 L151.4,115.1 L157.3,122.3 L156.0,125.6 L146.6,126.3 L145.0,128.9 L148.7,137.6 L146.5,140.3 L137.3,138.4 L135.1,140.5 L136.2,149.8 L133.3,151.8 L125.0,147.3 L122.2,148.7 L120.7,157.9 L117.3,159.0 L110.6,152.5 L107.6,153.0 L103.5,161.4 L100.0,161.5 L95.4,153.3 L92.4,153.0 L86.1,159.9 L82.7,159.0 L80.6,149.9 L77.8,148.7 L69.7,153.6 L66.7,151.8 L67.3,142.4 L64.9,140.5 L55.9,142.9 L53.5,140.3 L56.7,131.5 L55.0,128.9 L45.6,128.7 L44.0,125.6 L49.6,118.0 L48.6,115.1 L39.7,112.2 L39.1,108.8 L46.6,103.1 L46.5,100.0 L38.7,94.7 L39.1,91.2 L47.9,87.9 L48.6,84.9 L42.7,77.7 L44.0,74.4 L53.4,73.7 L55.0,71.1 L51.3,62.4 L53.5,59.7 L62.7,61.6 L64.9,59.5 L63.8,50.2 L66.7,48.2 L75.0,52.7 L77.8,51.3 L79.3,42.1 L82.7,41.0 L89.4,47.5 L92.4,47.0 L96.5,38.6 L100.0,38.5 L104.6,46.7 L107.6,47.0 L113.9,40.1 L117.3,41.0 L119.4,50.1 L122.2,51.3 L130.3,46.4 L133.3,48.2 L132.7,57.6 L135.1,59.5 L144.1,57.1 L146.5,59.7 L143.3,68.5 L145.0,71.1 L154.4,71.3 L156.0,74.4 L150.4,82.0 L151.4,84.9 L160.3,87.8 L160.9,91.2 L153.4,96.9 Z" stroke="#5C4033" stroke-width="2" fill="#F5F0E8"/>
        <circle cx="100" cy="100" r="43.52674897119341" stroke="#5C4033" stroke-width="1.5" fill="none"/>
        <circle cx="100" cy="100" r="19.405392661179697" stroke="#5C4033" stroke-width="2" fill="#E8DFD0"/>
        <circle cx="100" cy="100" r="7.762157064471879" stroke="#5C4033" stroke-width="1.5" fill="#C4A35A"/>
        <circle cx="131.5" cy="100.0" r="4.920563271604938" stroke="#7A5A47" stroke-width="1" fill="#E8DFD0"/><circle cx="115.7" cy="127.3" r="4.792952674897119" stroke="#7A5A47" stroke-width="1" fill="#E8DFD0"/><circle cx="84.3" cy="127.3" r="5.88679269547325" stroke="#7A5A47" stroke-width="1" fill="#E8DFD0"/><circle cx="68.5" cy="100.0" r="6.692824074074074" stroke="#7A5A47" stroke-width="1" fill="#E8DFD0"/><circle cx="84.3" cy="72.7" r="6.590676440329219" stroke="#7A5A47" stroke-width="1" fill="#E8DFD0"/>
      
  <g stroke="#7A5A47" stroke-width="1" fill="#7A5A47" font-size="9" font-family="Consolas, monospace">
    <line x1="25" y1="185" x2="175" y2="185"/>
    <line x1="25" y1="180" x2="25" y2="190"/>
    <line x1="175" y1="180" x2="175" y2="190"/>
    <text x="100" y="195" text-anchor="middle">直径 7cm</text>
  </g>
  <text x="100" y="172" text-anchor="middle" fill="#5C4033" font-size="11" font-family="SimSun, STSong, serif" font-weight="bold">螺旋传动杆乙</text>
</svg>