<svg xmlns="http://www.w3.org/2000/svg" viewBox="0 0 200 200">
  <defs>
    <pattern id="grid-gear-005" width="10" height="10" patternUnits="userSpaceOnUse">
      <path d="M 10 0 L 0 0 0 10" fill="none" stroke="rgba(92, 64, 51, 0.05)" stroke-width="0.5"/>
    </pattern>
  </defs>
  <rect width="200" height="200" fill="url(#grid-gear-005)"/>
  
        <circle cx="100" cy="100" r="72.84452160493828" stroke="#C4A35A" stroke-width="1" stroke-dasharray="4,3" fill="none"/>
        <path d="M157.84452160493828,100 L157.8,100.0 L165.5,106.9 L164.8,111.4 L155.6,115.9 L154.4,119.8 L159.2,128.9 L157.0,132.9 L146.8,134.0 L144.3,137.2 L145.7,147.4 L142.3,150.4 L132.3,148.0 L128.9,150.1 L126.8,160.2 L122.5,161.9 L114.0,156.1 L110.0,157.0 L104.6,165.7 L100.0,165.8 L94.0,157.5 L90.0,157.0 L81.9,163.3 L77.5,161.9 L74.6,152.0 L71.1,150.1 L61.3,153.3 L57.7,150.4 L58.4,140.2 L55.7,137.2 L45.4,136.8 L43.0,132.9 L47.2,123.5 L45.6,119.8 L36.1,115.9 L35.2,111.4 L42.3,104.0 L42.2,100.0 L34.5,93.1 L35.2,88.6 L44.4,84.1 L45.6,80.2 L40.8,71.1 L43.0,67.1 L53.2,66.0 L55.7,62.8 L54.3,52.6 L57.7,49.6 L67.7,52.0 L71.1,49.9 L73.2,39.8 L77.5,38.1 L86.0,43.9 L90.0,43.0 L95.4,34.3 L100.0,34.2 L106.0,42.5 L110.0,43.0 L118.1,36.7 L122.5,38.1 L125.4,48.0 L128.9,49.9 L138.7,46.7 L142.3,49.6 L141.6,59.8 L144.3,62.8 L154.6,63.2 L157.0,67.1 L152.8,76.5 L154.4,80.2 L163.9,84.1 L164.8,88.6 L157.7,96.0 Z" stroke="#5C4033" stroke-width="2" fill="#F5F0E8"/>
        <circle cx="100" cy="100" r="47.84452160493827" stroke="#5C4033" stroke-width="1.5" fill="none"/>
        <circle cx="100" cy="100" r="19.00865912208505" stroke="#5C4033" stroke-width="2" fill="#E8DFD0"/>
        <circle cx="100" cy="100" r="7.60346364883402" stroke="#5C4033" stroke-width="1.5" fill="#C4A35A"/>
        <circle cx="133.4" cy="100.0" r="6.889506172839506" stroke="#7A5A47" stroke-width="1" fill="#E8DFD0"/><circle cx="116.7" cy="128.9" r="5.930877057613169" stroke="#7A5A47" stroke-width="1" fill="#E8DFD0"/><circle cx="83.3" cy="128.9" r="5.72147633744856" stroke="#7A5A47" stroke-width="1" fill="#E8DFD0"/><circle cx="66.6" cy="100.0" r="5.0853780864197535" stroke="#7A5A47" stroke-width="1" fill="#E8DFD0"/>
      
  <g stroke="#7A5A47" stroke-width="1" fill="#7A5A47" font-size="9" font-family="Consolas, monospace">
    <line x1="25" y1="185" x2="175" y2="185"/>
    <line x1="25" y1="180" x2="25" y2="190"/>
    <line x1="175" y1="180" x2="175" y2="190"/>
    <text x="100" y="195" text-anchor="middle">21.8×10.3cm</text>
  </g>
  <text x="100" y="172" text-anchor="middle" fill="#5C4033" font-size="11" font-family="SimSun, STSong, serif" font-weight="bold">差动齿轮</text>
</svg>