<svg xmlns="http://www.w3.org/2000/svg" viewBox="0 0 200 200">
  <defs>
    <pattern id="grid-gear-033" width="10" height="10" patternUnits="userSpaceOnUse">
      <path d="M 10 0 L 0 0 0 10" fill="none" stroke="rgba(92, 64, 51, 0.05)" stroke-width="0.5"/>
    </pattern>
  </defs>
  <rect width="200" height="200" fill="url(#grid-gear-033)"/>
  
        <circle cx="100" cy="100" r="68.43355624142661" stroke="#C4A35A" stroke-width="1" stroke-dasharray="4,3" fill="none"/>
        <path d="M153.43355624142663,100 L153.4,100.0 L160.9,108.2 L159.9,113.7 L150.0,118.8 L148.1,123.2 L151.3,133.8 L148.0,138.3 L136.9,138.6 L133.3,141.8 L131.5,152.7 L126.7,155.3 L116.5,150.8 L111.9,152.1 L105.5,161.2 L100.0,161.4 L92.8,152.9 L88.1,152.1 L78.4,157.5 L73.3,155.3 L70.6,144.6 L66.7,141.8 L55.6,142.5 L52.0,138.3 L54.1,127.4 L51.9,123.2 L41.6,119.0 L40.1,113.7 L46.8,104.8 L46.6,100.0 L39.1,91.8 L40.1,86.3 L50.0,81.2 L51.9,76.8 L48.7,66.2 L52.0,61.7 L63.1,61.4 L66.7,58.2 L68.5,47.3 L73.3,44.7 L83.5,49.2 L88.1,47.9 L94.5,38.8 L100.0,38.6 L107.2,47.1 L111.9,47.9 L121.6,42.5 L126.7,44.7 L129.4,55.4 L133.3,58.2 L144.4,57.5 L148.0,61.7 L145.9,72.6 L148.1,76.8 L158.4,81.0 L159.9,86.3 L153.2,95.2 Z" stroke="#5C4033" stroke-width="2" fill="#F5F0E8"/>
        <circle cx="100" cy="100" r="43.433556241426615" stroke="#5C4033" stroke-width="1.5" fill="none"/>
        <circle cx="100" cy="100" r="22.619813100137172" stroke="#5C4033" stroke-width="2" fill="#E8DFD0"/>
        <circle cx="100" cy="100" r="9.04792524005487" stroke="#5C4033" stroke-width="1.5" fill="#C4A35A"/>
        <circle cx="133.0" cy="100.0" r="6.48056841563786" stroke="#7A5A47" stroke-width="1" fill="#E8DFD0"/><circle cx="116.5" cy="128.6" r="6.4007973251028805" stroke="#7A5A47" stroke-width="1" fill="#E8DFD0"/><circle cx="83.5" cy="128.6" r="5.449884259259259" stroke="#7A5A47" stroke-width="1" fill="#E8DFD0"/><circle cx="67.0" cy="100.0" r="5.0074588477366255" stroke="#7A5A47" stroke-width="1" fill="#E8DFD0"/>
      
  <g stroke="#7A5A47" stroke-width="1" fill="#7A5A47" font-size="9" font-family="Consolas, monospace">
    <line x1="25" y1="185" x2="175" y2="185"/>
    <line x1="25" y1="180" x2="25" y2="190"/>
    <line x1="175" y1="180" x2="175" y2="190"/>
    <text x="100" y="195" text-anchor="middle">直径 6.1cm</text>
  </g>
  <text x="100" y="172" text-anchor="middle" fill="#5C4033" font-size="11" font-family="SimSun, STSong, serif" font-weight="bold">曲柄连杆丁</text>
</svg>