<svg xmlns="http://www.w3.org/2000/svg" viewBox="0 0 200 200">
  <defs>
    <pattern id="grid-gear-028" width="10" height="10" patternUnits="userSpaceOnUse">
      <path d="M 10 0 L 0 0 0 10" fill="none" stroke="rgba(92, 64, 51, 0.05)" stroke-width="0.5"/>
    </pattern>
  </defs>
  <rect width="200" height="200" fill="url(#grid-gear-028)"/>
  
        <circle cx="100" cy="100" r="68.568201303155" stroke="#C4A35A" stroke-width="1" stroke-dasharray="4,3" fill="none"/>
        <path d="M153.568201303155,100 L153.6,100.0 L161.2,106.8 L160.5,111.3 L151.2,115.6 L150.0,119.4 L154.6,128.5 L152.3,132.4 L142.1,133.1 L139.6,136.1 L140.6,146.3 L137.1,149.1 L127.4,146.1 L123.9,148.0 L121.2,157.8 L116.8,159.2 L108.9,152.8 L104.9,153.3 L98.9,161.6 L94.3,161.3 L89.2,152.5 L85.3,151.5 L76.7,157.0 L72.6,155.1 L71.0,145.0 L67.7,142.7 L57.7,144.7 L54.5,141.5 L56.7,131.5 L54.5,128.2 L44.4,126.4 L42.6,122.2 L48.2,113.7 L47.3,109.8 L38.6,104.5 L38.4,100.0 L46.8,94.1 L47.3,90.2 L41.1,82.1 L42.6,77.8 L52.5,75.2 L54.5,71.8 L51.6,62.0 L54.5,58.5 L64.6,59.8 L67.7,57.3 L68.6,47.1 L72.6,44.9 L81.6,49.7 L85.3,48.5 L89.8,39.3 L94.3,38.7 L101.0,46.4 L104.9,46.7 L112.4,39.7 L116.8,40.8 L120.3,50.4 L123.9,52.0 L133.4,48.3 L137.1,50.9 L136.8,61.1 L139.6,63.9 L149.8,63.8 L152.3,67.6 L148.4,77.0 L150.0,80.6 L159.5,84.2 L160.5,88.7 L153.4,96.0 Z" stroke="#5C4033" stroke-width="2" fill="#F5F0E8"/>
        <circle cx="100" cy="100" r="43.56820130315501" stroke="#5C4033" stroke-width="1.5" fill="none"/>
        <circle cx="100" cy="100" r="24.953532235939644" stroke="#5C4033" stroke-width="2" fill="#E8DFD0"/>
        <circle cx="100" cy="100" r="9.981412894375858" stroke="#5C4033" stroke-width="1.5" fill="#C4A35A"/>
        <circle cx="134.3" cy="100.0" r="5.750128600823045" stroke="#7A5A47" stroke-width="1" fill="#E8DFD0"/><circle cx="117.1" cy="129.7" r="4.580079732510288" stroke="#7A5A47" stroke-width="1" fill="#E8DFD0"/><circle cx="82.9" cy="129.7" r="5.955555555555556" stroke="#7A5A47" stroke-width="1" fill="#E8DFD0"/><circle cx="65.7" cy="100.0" r="4.256185699588477" stroke="#7A5A47" stroke-width="1" fill="#E8DFD0"/><circle cx="82.9" cy="70.3" r="5.417155349794239" stroke="#7A5A47" stroke-width="1" fill="#E8DFD0"/>
      
  <g stroke="#7A5A47" stroke-width="1" fill="#7A5A47" font-size="9" font-family="Consolas, monospace">
    <line x1="25" y1="185" x2="175" y2="185"/>
    <line x1="25" y1="180" x2="25" y2="190"/>
    <line x1="175" y1="180" x2="175" y2="190"/>
    <text x="100" y="195" text-anchor="middle">16.4×11cm</text>
  </g>
  <text x="100" y="172" text-anchor="middle" fill="#5C4033" font-size="11" font-family="SimSun, STSong, serif" font-weight="bold">铜制凸轮丙</text>
</svg>