<svg xmlns="http://www.w3.org/2000/svg" viewBox="0 0 200 200">
  <defs>
    <pattern id="grid-gear-018" width="10" height="10" patternUnits="userSpaceOnUse">
      <path d="M 10 0 L 0 0 0 10" fill="none" stroke="rgba(92, 64, 51, 0.05)" stroke-width="0.5"/>
    </pattern>
  </defs>
  <rect width="200" height="200" fill="url(#grid-gear-018)"/>
  
        <circle cx="100" cy="100" r="69.66786694101509" stroke="#C4A35A" stroke-width="1" stroke-dasharray="4,3" fill="none"/>
        <path d="M154.6678669410151,100 L154.7,100.0 L162.3,106.9 L161.6,111.5 L152.3,115.9 L151.0,119.7 L155.6,129.0 L153.3,133.0 L143.0,133.7 L140.4,136.8 L141.4,147.1 L137.8,150.0 L127.9,147.0 L124.4,148.9 L121.6,158.8 L117.1,160.3 L109.1,153.9 L105.0,154.4 L98.8,162.7 L94.2,162.4 L89.0,153.5 L85.0,152.6 L76.3,158.0 L72.1,156.1 L70.4,145.9 L67.1,143.6 L56.9,145.5 L53.7,142.2 L55.8,132.1 L53.5,128.8 L43.4,126.9 L41.6,122.6 L47.2,114.0 L46.3,110.0 L37.5,104.6 L37.3,100.0 L45.7,94.0 L46.3,90.0 L40.1,81.7 L41.6,77.4 L51.5,74.7 L53.5,71.2 L50.7,61.3 L53.7,57.8 L63.9,58.9 L67.1,56.4 L68.0,46.1 L72.1,43.9 L81.2,48.7 L85.0,47.4 L89.6,38.2 L94.2,37.6 L101.0,45.3 L105.0,45.6 L112.7,38.6 L117.1,39.7 L120.7,49.4 L124.4,51.1 L134.0,47.3 L137.8,50.0 L137.6,60.3 L140.4,63.2 L150.7,63.2 L153.3,67.0 L149.4,76.5 L151.0,80.3 L160.6,84.0 L161.6,88.5 L154.5,96.0 Z" stroke="#5C4033" stroke-width="2" fill="#F5F0E8"/>
        <circle cx="100" cy="100" r="44.66786694101509" stroke="#5C4033" stroke-width="1.5" fill="none"/>
        <circle cx="100" cy="100" r="22.94362997256516" stroke="#5C4033" stroke-width="2" fill="#E8DFD0"/>
        <circle cx="100" cy="100" r="9.177451989026064" stroke="#5C4033" stroke-width="1.5" fill="#C4A35A"/>
        <circle cx="133.8" cy="100.0" r="4.864750514403292" stroke="#7A5A47" stroke-width="1" fill="#E8DFD0"/><circle cx="116.9" cy="129.3" r="4.678497942386831" stroke="#7A5A47" stroke-width="1" fill="#E8DFD0"/><circle cx="83.1" cy="129.3" r="6.34332561728395" stroke="#7A5A47" stroke-width="1" fill="#E8DFD0"/><circle cx="66.2" cy="100.0" r="4.905529835390946" stroke="#7A5A47" stroke-width="1" fill="#E8DFD0"/>
      
  <g stroke="#7A5A47" stroke-width="1" fill="#7A5A47" font-size="9" font-family="Consolas, monospace">
    <line x1="25" y1="185" x2="175" y2="185"/>
    <line x1="25" y1="180" x2="25" y2="190"/>
    <line x1="175" y1="180" x2="175" y2="190"/>
    <text x="100" y="195" text-anchor="middle">直径 7.1cm</text>
  </g>
  <text x="100" y="172" text-anchor="middle" fill="#5C4033" font-size="11" font-family="SimSun, STSong, serif" font-weight="bold">铜制凸轮乙</text>
</svg>