<svg xmlns="http://www.w3.org/2000/svg" viewBox="0 0 200 200" fill="none" stroke="#5C4033" stroke-width="2">
  <circle cx="70" cy="70" r="25" stroke="#5C4033" stroke-width="2.5" fill="#F5F0E8"/>
  <circle cx="70" cy="70" r="6" stroke="#5C4033" stroke-width="1.5" fill="none"/>
  <circle cx="130" cy="90" r="20" stroke="#5C4033" stroke-width="2.5" fill="#F5F0E8"/>
  <circle cx="130" cy="90" r="5" stroke="#5C4033" stroke-width="1.5" fill="none"/>
  <path d="M50 70 Q60 55 80 60 Q95 65 90 85 Q85 100 70 95 Q55 90 50 70" 
        stroke="#5C4033" stroke-width="1.5" fill="none" stroke-dasharray="3,2"/>
  <path d="M115 85 Q125 75 140 80 Q148 90 142 100 Q136 110 125 105 Q115 98 115 85" 
        stroke="#5C4033" stroke-width="1.5" fill="none" stroke-dasharray="3,2"/>
  <line x1="70" y1="100" x2="70" y2="160" stroke="#5C4033" stroke-width="2"/>
  <line x1="130" y1="115" x2="130" y2="160" stroke="#5C4033" stroke-width="2"/>
  <path d="M60 160 L80 160 L75 170 L65 170 Z" stroke="#5C4033" stroke-width="1.5" fill="#E8DFD0"/>
  <path d="M120 160 L140 160 L135 170 L125 170 Z" stroke="#5C4033" stroke-width="1.5" fill="#E8DFD0"/>
  <text x="100" y="190" text-anchor="middle" font-size="9" fill="#5C4033" font-family="serif">滑轮组</text>
</svg>
