<svg xmlns="http://www.w3.org/2000/svg" viewBox="0 0 200 200" fill="none" stroke="#5C4033" stroke-width="2">
  <circle cx="100" cy="100" r="35" stroke="#5C4033" stroke-width="2" fill="#F5F0E8"/>
  <path d="M100 65 L105 75 L115 75 L105 80 L110 90 L100 83 L90 90 L95 80 L85 75 L95 75 Z" 
        stroke="#5C4033" stroke-width="1.5" fill="#E8DFD0"/>
  <path d="M135 100 L125 105 L125 115 L120 105 L110 110 L117 100 L110 90 L120 95 L125 85 L125 95 Z" 
        stroke="#5C4033" stroke-width="1.5" fill="#E8DFD0"/>
  <path d="M100 135 L95 125 L85 125 L95 120 L90 110 L100 117 L110 110 L105 120 L115 125 L105 125 Z" 
        stroke="#5C4033" stroke-width="1.5" fill="#E8DFD0"/>
  <path d="M65 100 L75 95 L75 85 L80 95 L90 90 L83 100 L90 110 L80 105 L75 115 L75 105 Z" 
        stroke="#5C4033" stroke-width="1.5" fill="#E8DFD0"/>
  <circle cx="100" cy="100" r="12" stroke="#5C4033" stroke-width="1.5" fill="#F9F5ED"/>
  <circle cx="100" cy="100" r="4" stroke="#5C4033" stroke-width="1" fill="none"/>
  <text x="100" y="185" text-anchor="middle" font-size="9" fill="#5C4033" font-family="serif">棘轮</text>
</svg>
