<svg xmlns="http://www.w3.org/2000/svg" viewBox="0 0 200 200">
  <defs>
    <pattern id="grid-resonate-210" width="10" height="10" patternUnits="userSpaceOnUse">
      <path d="M 10 0 L 0 0 0 10" fill="none" stroke="rgba(92, 64, 51, 0.05)" stroke-width="0.5"/>
    </pattern>
  </defs>
  <rect width="200" height="200" fill="url(#grid-resonate-210)"/>
  
        <path d="M50,60 L50,140 Q100,170 150,140 L150,60 Q100,50 50,60 Z" stroke="#5C4033" stroke-width="2" fill="#F5F0E8"/>
        <path d="M70,80 Q100,75 130,80 L130,95 Q100,100 70,95 Z" stroke="#C4A35A" stroke-width="1.5" fill="#E8DFD0"/>
        <circle cx="100" cy="115" r="10" stroke="#7A5A47" stroke-width="1.5" fill="#E8DFD0"/>
        <circle cx="80" cy="120" r="5" stroke="#7A5A47" stroke-width="1" fill="none"/>
        <circle cx="120" cy="120" r="5" stroke="#7A5A47" stroke-width="1" fill="none"/>
        <path d="M55,145 Q60,150 65,145 Q70,150 75,145" stroke="#7A5A47" stroke-width="1" fill="none" opacity="0.6"/>
        <path d="M125,145 Q130,150 135,145 Q140,150 145,145" stroke="#7A5A47" stroke-width="1" fill="none" opacity="0.6"/>
      
  <g stroke="#7A5A47" stroke-width="1" fill="#7A5A47" font-size="9" font-family="Consolas, monospace">
    <line x1="25" y1="185" x2="175" y2="185"/>
    <line x1="25" y1="180" x2="25" y2="190"/>
    <line x1="175" y1="180" x2="175" y2="190"/>
    <text x="100" y="195" text-anchor="middle">长 13.9cm</text>
  </g>
  <text x="100" y="172" text-anchor="middle" fill="#5C4033" font-size="11" font-family="SimSun, STSong, serif" font-weight="bold">兽皮共鸣鼓</text>
</svg>