<svg xmlns="http://www.w3.org/2000/svg" viewBox="0 0 200 200">
  <defs>
    <pattern id="grid-sensor-154" width="10" height="10" patternUnits="userSpaceOnUse">
      <path d="M 10 0 L 0 0 0 10" fill="none" stroke="rgba(92, 64, 51, 0.05)" stroke-width="0.5"/>
    </pattern>
  </defs>
  <rect width="200" height="200" fill="url(#grid-sensor-154)"/>
  
        <rect x="60" y="70" width="80" height="80" rx="8" stroke="#5C4033" stroke-width="2" fill="#F5F0E8"/>
        <circle cx="100" cy="100" r="25" stroke="#5C4033" stroke-width="2" fill="#E8DFD0"/>
        <path d="M85,100 Q100,80 115,100 Q100,120 85,100" stroke="#7A5A47" stroke-width="2" fill="none"/>
        <path d="M92,100 Q100,90 108,100 Q100,110 92,100" stroke="#7A5A47" stroke-width="1.5" fill="none"/>
        <line x1="70" y1="155" x2="60" y2="175" stroke="#7A5A47" stroke-width="2"/>
        <line x1="90" y1="155" x2="85" y2="180" stroke="#7A5A47" stroke-width="2"/>
        <line x1="110" y1="155" x2="115" y2="180" stroke="#7A5A47" stroke-width="2"/>
        <line x1="130" y1="155" x2="140" y2="175" stroke="#7A5A47" stroke-width="2"/>
      
  <g stroke="#7A5A47" stroke-width="1" fill="#7A5A47" font-size="9" font-family="Consolas, monospace">
    <line x1="25" y1="185" x2="175" y2="185"/>
    <line x1="25" y1="180" x2="25" y2="190"/>
    <line x1="175" y1="180" x2="175" y2="190"/>
    <text x="100" y="195" text-anchor="middle">27×6.5cm</text>
  </g>
  <text x="100" y="172" text-anchor="middle" fill="#5C4033" font-size="11" font-family="SimSun, STSong, serif" font-weight="bold">声敏铜铃</text>
</svg>