<svg xmlns="http://www.w3.org/2000/svg" viewBox="0 0 200 200">
  <defs>
    <pattern id="grid-signal-202" width="10" height="10" patternUnits="userSpaceOnUse">
      <path d="M 10 0 L 0 0 0 10" fill="none" stroke="rgba(92, 64, 51, 0.05)" stroke-width="0.5"/>
    </pattern>
  </defs>
  <rect width="200" height="200" fill="url(#grid-signal-202)"/>
  
        <rect x="80" y="80" width="40" height="60" rx="5" stroke="#5C4033" stroke-width="2" fill="#F5F0E8"/>
        <circle cx="90" cy="95" r="5" stroke="#7A5A47" stroke-width="1.5" fill="#C4A35A"/>
        <circle cx="110" cy="95" r="5" stroke="#7A5A47" stroke-width="1.5" fill="#E8DFD0"/>
        <path d="M85,110 Q100,120 115,110 L115,125 Q100,130 85,125 Z" stroke="#5C4033" stroke-width="1.5" fill="#E8DFD0"/>
        <line x1="100" y1="140" x2="100" y2="170" stroke="#5C4033" stroke-width="3"/>
        <path d="M60,170 L100,150 L140,170 Z" stroke="#5C4033" stroke-width="2" fill="#7A5A47"/>
        <path d="M125,70 Q145,60 140,85" stroke="#C4A35A" stroke-width="1.5" fill="none" stroke-dasharray="3,2"/>
        <path d="M125,85 Q150,80 145,105" stroke="#C4A35A" stroke-width="1.5" fill="none" stroke-dasharray="3,2"/>
      
  <g stroke="#7A5A47" stroke-width="1" fill="#7A5A47" font-size="9" font-family="Consolas, monospace">
    <line x1="25" y1="185" x2="175" y2="185"/>
    <line x1="25" y1="180" x2="25" y2="190"/>
    <line x1="175" y1="180" x2="175" y2="190"/>
    <text x="100" y="195" text-anchor="middle">15.8×11cm</text>
  </g>
  <text x="100" y="172" text-anchor="middle" fill="#5C4033" font-size="11" font-family="SimSun, STSong, serif" font-weight="bold">振动蜂鸣片</text>
</svg>