<svg xmlns="http://www.w3.org/2000/svg" viewBox="0 0 200 200">
  <defs>
    <pattern id="grid-spring-093" width="10" height="10" patternUnits="userSpaceOnUse">
      <path d="M 10 0 L 0 0 0 10" fill="none" stroke="rgba(92, 64, 51, 0.05)" stroke-width="0.5"/>
    </pattern>
  </defs>
  <rect width="200" height="200" fill="url(#grid-spring-093)"/>
  
        <rect x="30" y="65" width="15" height="70" stroke="#5C4033" stroke-width="2" fill="#E8DFD0"/>
        <rect x="155" y="65" width="15" height="70" stroke="#5C4033" stroke-width="2" fill="#E8DFD0"/>
        <path d="M50.0,100.0 L50.6,109.7 L51.3,118.4 L51.9,125.4 L52.5,129.8 L53.1,131.3 L53.8,129.8 L54.4,125.4 L55.0,118.4 L55.6,109.7 L56.3,100.0 L56.9,90.3 L57.5,81.6 L58.1,74.6 L58.8,70.2 L59.4,68.7 L60.0,70.2 L60.6,74.6 L61.3,81.6 L61.9,90.3 L62.5,100.0 L63.1,109.7 L63.8,118.4 L64.4,125.4 L65.0,129.8 L65.6,131.3 L66.3,129.8 L66.9,125.4 L67.5,118.4 L68.1,109.7 L68.8,100.0 L69.4,90.3 L70.0,81.6 L70.6,74.6 L71.3,70.2 L71.9,68.7 L72.5,70.2 L73.1,74.6 L73.8,81.6 L74.4,90.3 L75.0,100.0 L75.6,109.7 L76.3,118.4 L76.9,125.4 L77.5,129.8 L78.1,131.3 L78.8,129.8 L79.4,125.4 L80.0,118.4 L80.6,109.7 L81.3,100.0 L81.9,90.3 L82.5,81.6 L83.1,74.6 L83.8,70.2 L84.4,68.7 L85.0,70.2 L85.6,74.6 L86.3,81.6 L86.9,90.3 L87.5,100.0 L88.1,109.7 L88.8,118.4 L89.4,125.4 L90.0,129.8 L90.6,131.3 L91.3,129.8 L91.9,125.4 L92.5,118.4 L93.1,109.7 L93.8,100.0 L94.4,90.3 L95.0,81.6 L95.6,74.6 L96.3,70.2 L96.9,68.7 L97.5,70.2 L98.1,74.6 L98.8,81.6 L99.4,90.3 L100.0,100.0 L100.6,109.7 L101.3,118.4 L101.9,125.4 L102.5,129.8 L103.1,131.3 L103.8,129.8 L104.4,125.4 L105.0,118.4 L105.6,109.7 L106.3,100.0 L106.9,90.3 L107.5,81.6 L108.1,74.6 L108.8,70.2 L109.4,68.7 L110.0,70.2 L110.6,74.6 L111.3,81.6 L111.9,90.3 L112.5,100.0 L113.1,109.7 L113.8,118.4 L114.4,125.4 L115.0,129.8 L115.6,131.3 L116.3,129.8 L116.9,125.4 L117.5,118.4 L118.1,109.7 L118.8,100.0 L119.4,90.3 L120.0,81.6 L120.6,74.6 L121.3,70.2 L121.9,68.7 L122.5,70.2 L123.1,74.6 L123.8,81.6 L124.4,90.3 L125.0,100.0 L125.6,109.7 L126.3,118.4 L126.9,125.4 L127.5,129.8 L128.1,131.3 L128.8,129.8 L129.4,125.4 L130.0,118.4 L130.6,109.7 L131.3,100.0 L131.9,90.3 L132.5,81.6 L133.1,74.6 L133.8,70.2 L134.4,68.7 L135.0,70.2 L135.6,74.6 L136.3,81.6 L136.9,90.3 L137.5,100.0 L138.1,109.7 L138.8,118.4 L139.4,125.4 L140.0,129.8 L140.6,131.3 L141.3,129.8 L141.9,125.4 L142.5,118.4 L143.1,109.7 L143.8,100.0 L144.4,90.3 L145.0,81.6 L145.6,74.6 L146.3,70.2 L146.9,68.7 L147.5,70.2 L148.1,74.6 L148.8,81.6 L149.4,90.3 L150.0,100.0 " stroke="#7A5A47" stroke-width="3" fill="none" stroke-linecap="round"/>
        <circle cx="100" cy="100" r="45" stroke="#C4A35A" stroke-width="1" stroke-dasharray="3,3" fill="none"/>
      
  <g stroke="#7A5A47" stroke-width="1" fill="#7A5A47" font-size="9" font-family="Consolas, monospace">
    <line x1="25" y1="185" x2="175" y2="185"/>
    <line x1="25" y1="180" x2="25" y2="190"/>
    <line x1="175" y1="180" x2="175" y2="190"/>
    <text x="100" y="195" text-anchor="middle">41.2×6.9cm</text>
  </g>
  <text x="100" y="172" text-anchor="middle" fill="#5C4033" font-size="11" font-family="SimSun, STSong, serif" font-weight="bold">液压储能腔丙</text>
</svg>