<svg xmlns="http://www.w3.org/2000/svg" viewBox="0 0 200 200">
  <defs>
    <pattern id="grid-spring-074" width="10" height="10" patternUnits="userSpaceOnUse">
      <path d="M 10 0 L 0 0 0 10" fill="none" stroke="rgba(92, 64, 51, 0.05)" stroke-width="0.5"/>
    </pattern>
  </defs>
  <rect width="200" height="200" fill="url(#grid-spring-074)"/>
  
        <rect x="30" y="65" width="15" height="70" stroke="#5C4033" stroke-width="2" fill="#E8DFD0"/>
        <rect x="155" y="65" width="15" height="70" stroke="#5C4033" stroke-width="2" fill="#E8DFD0"/>
        <path d="M50.0,100.0 L50.8,109.5 L51.7,118.1 L52.5,124.9 L53.3,129.3 L54.2,130.8 L55.0,129.3 L55.8,124.9 L56.7,118.1 L57.5,109.5 L58.3,100.0 L59.2,90.5 L60.0,81.9 L60.8,75.1 L61.7,70.7 L62.5,69.2 L63.3,70.7 L64.2,75.1 L65.0,81.9 L65.8,90.5 L66.7,100.0 L67.5,109.5 L68.3,118.1 L69.2,124.9 L70.0,129.3 L70.8,130.8 L71.7,129.3 L72.5,124.9 L73.3,118.1 L74.2,109.5 L75.0,100.0 L75.8,90.5 L76.7,81.9 L77.5,75.1 L78.3,70.7 L79.2,69.2 L80.0,70.7 L80.8,75.1 L81.7,81.9 L82.5,90.5 L83.3,100.0 L84.2,109.5 L85.0,118.1 L85.8,124.9 L86.7,129.3 L87.5,130.8 L88.3,129.3 L89.2,124.9 L90.0,118.1 L90.8,109.5 L91.7,100.0 L92.5,90.5 L93.3,81.9 L94.2,75.1 L95.0,70.7 L95.8,69.2 L96.7,70.7 L97.5,75.1 L98.3,81.9 L99.2,90.5 L100.0,100.0 L100.8,109.5 L101.7,118.1 L102.5,124.9 L103.3,129.3 L104.2,130.8 L105.0,129.3 L105.8,124.9 L106.7,118.1 L107.5,109.5 L108.3,100.0 L109.2,90.5 L110.0,81.9 L110.8,75.1 L111.7,70.7 L112.5,69.2 L113.3,70.7 L114.2,75.1 L115.0,81.9 L115.8,90.5 L116.7,100.0 L117.5,109.5 L118.3,118.1 L119.2,124.9 L120.0,129.3 L120.8,130.8 L121.7,129.3 L122.5,124.9 L123.3,118.1 L124.2,109.5 L125.0,100.0 L125.8,90.5 L126.7,81.9 L127.5,75.1 L128.3,70.7 L129.2,69.2 L130.0,70.7 L130.8,75.1 L131.7,81.9 L132.5,90.5 L133.3,100.0 L134.2,109.5 L135.0,118.1 L135.8,124.9 L136.7,129.3 L137.5,130.8 L138.3,129.3 L139.2,124.9 L140.0,118.1 L140.8,109.5 L141.7,100.0 L142.5,90.5 L143.3,81.9 L144.2,75.1 L145.0,70.7 L145.8,69.2 L146.7,70.7 L147.5,75.1 L148.3,81.9 L149.2,90.5 L150.0,100.0 " stroke="#7A5A47" stroke-width="3" fill="none" stroke-linecap="round"/>
        <circle cx="100" cy="100" r="45" stroke="#C4A35A" stroke-width="1" stroke-dasharray="3,3" fill="none"/>
      
  <g stroke="#7A5A47" stroke-width="1" fill="#7A5A47" font-size="9" font-family="Consolas, monospace">
    <line x1="25" y1="185" x2="175" y2="185"/>
    <line x1="25" y1="180" x2="25" y2="190"/>
    <line x1="175" y1="180" x2="175" y2="190"/>
    <text x="100" y="195" text-anchor="middle">5.7×2.4cm</text>
  </g>
  <text x="100" y="172" text-anchor="middle" fill="#5C4033" font-size="11" font-family="SimSun, STSong, serif" font-weight="bold">重锤储能器</text>
</svg>