<svg xmlns="http://www.w3.org/2000/svg" viewBox="0 0 200 200">
  <defs>
    <pattern id="grid-spring-087" width="10" height="10" patternUnits="userSpaceOnUse">
      <path d="M 10 0 L 0 0 0 10" fill="none" stroke="rgba(92, 64, 51, 0.05)" stroke-width="0.5"/>
    </pattern>
  </defs>
  <rect width="200" height="200" fill="url(#grid-spring-087)"/>
  
        <rect x="30" y="65" width="15" height="70" stroke="#5C4033" stroke-width="2" fill="#E8DFD0"/>
        <rect x="155" y="65" width="15" height="70" stroke="#5C4033" stroke-width="2" fill="#E8DFD0"/>
        <path d="M50.0,100.0 L51.0,110.5 L52.0,120.0 L53.0,127.5 L54.0,132.3 L55.0,134.0 L56.0,132.3 L57.0,127.5 L58.0,120.0 L59.0,110.5 L60.0,100.0 L61.0,89.5 L62.0,80.0 L63.0,72.5 L64.0,67.7 L65.0,66.0 L66.0,67.7 L67.0,72.5 L68.0,80.0 L69.0,89.5 L70.0,100.0 L71.0,110.5 L72.0,120.0 L73.0,127.5 L74.0,132.3 L75.0,134.0 L76.0,132.3 L77.0,127.5 L78.0,120.0 L79.0,110.5 L80.0,100.0 L81.0,89.5 L82.0,80.0 L83.0,72.5 L84.0,67.7 L85.0,66.0 L86.0,67.7 L87.0,72.5 L88.0,80.0 L89.0,89.5 L90.0,100.0 L91.0,110.5 L92.0,120.0 L93.0,127.5 L94.0,132.3 L95.0,134.0 L96.0,132.3 L97.0,127.5 L98.0,120.0 L99.0,110.5 L100.0,100.0 L101.0,89.5 L102.0,80.0 L103.0,72.5 L104.0,67.7 L105.0,66.0 L106.0,67.7 L107.0,72.5 L108.0,80.0 L109.0,89.5 L110.0,100.0 L111.0,110.5 L112.0,120.0 L113.0,127.5 L114.0,132.3 L115.0,134.0 L116.0,132.3 L117.0,127.5 L118.0,120.0 L119.0,110.5 L120.0,100.0 L121.0,89.5 L122.0,80.0 L123.0,72.5 L124.0,67.7 L125.0,66.0 L126.0,67.7 L127.0,72.5 L128.0,80.0 L129.0,89.5 L130.0,100.0 L131.0,110.5 L132.0,120.0 L133.0,127.5 L134.0,132.3 L135.0,134.0 L136.0,132.3 L137.0,127.5 L138.0,120.0 L139.0,110.5 L140.0,100.0 L141.0,89.5 L142.0,80.0 L143.0,72.5 L144.0,67.7 L145.0,66.0 L146.0,67.7 L147.0,72.5 L148.0,80.0 L149.0,89.5 L150.0,100.0 " stroke="#7A5A47" stroke-width="3" fill="none" stroke-linecap="round"/>
        <circle cx="100" cy="100" r="45" stroke="#C4A35A" stroke-width="1" stroke-dasharray="3,3" fill="none"/>
      
  <g stroke="#7A5A47" stroke-width="1" fill="#7A5A47" font-size="9" font-family="Consolas, monospace">
    <line x1="25" y1="185" x2="175" y2="185"/>
    <line x1="25" y1="180" x2="25" y2="190"/>
    <line x1="175" y1="180" x2="175" y2="190"/>
    <text x="100" y="195" text-anchor="middle">42.6×7.6cm</text>
  </g>
  <text x="100" y="172" text-anchor="middle" fill="#5C4033" font-size="11" font-family="SimSun, STSong, serif" font-weight="bold">扭力弹簧丙</text>
</svg>