<svg xmlns="http://www.w3.org/2000/svg" viewBox="0 0 200 200">
  <defs>
    <pattern id="grid-spring-072" width="10" height="10" patternUnits="userSpaceOnUse">
      <path d="M 10 0 L 0 0 0 10" fill="none" stroke="rgba(92, 64, 51, 0.05)" stroke-width="0.5"/>
    </pattern>
  </defs>
  <rect width="200" height="200" fill="url(#grid-spring-072)"/>
  
        <rect x="30" y="65" width="15" height="70" stroke="#5C4033" stroke-width="2" fill="#E8DFD0"/>
        <rect x="155" y="65" width="15" height="70" stroke="#5C4033" stroke-width="2" fill="#E8DFD0"/>
        <path d="M50.0,100.0 L50.6,109.7 L51.1,118.4 L51.7,125.3 L52.2,129.8 L52.8,131.3 L53.3,129.8 L53.9,125.3 L54.4,118.4 L55.0,109.7 L55.6,100.0 L56.1,90.3 L56.7,81.6 L57.2,74.7 L57.8,70.2 L58.3,68.7 L58.9,70.2 L59.4,74.7 L60.0,81.6 L60.6,90.3 L61.1,100.0 L61.7,109.7 L62.2,118.4 L62.8,125.3 L63.3,129.8 L63.9,131.3 L64.4,129.8 L65.0,125.3 L65.6,118.4 L66.1,109.7 L66.7,100.0 L67.2,90.3 L67.8,81.6 L68.3,74.7 L68.9,70.2 L69.4,68.7 L70.0,70.2 L70.6,74.7 L71.1,81.6 L71.7,90.3 L72.2,100.0 L72.8,109.7 L73.3,118.4 L73.9,125.3 L74.4,129.8 L75.0,131.3 L75.6,129.8 L76.1,125.3 L76.7,118.4 L77.2,109.7 L77.8,100.0 L78.3,90.3 L78.9,81.6 L79.4,74.7 L80.0,70.2 L80.6,68.7 L81.1,70.2 L81.7,74.7 L82.2,81.6 L82.8,90.3 L83.3,100.0 L83.9,109.7 L84.4,118.4 L85.0,125.3 L85.6,129.8 L86.1,131.3 L86.7,129.8 L87.2,125.3 L87.8,118.4 L88.3,109.7 L88.9,100.0 L89.4,90.3 L90.0,81.6 L90.6,74.7 L91.1,70.2 L91.7,68.7 L92.2,70.2 L92.8,74.7 L93.3,81.6 L93.9,90.3 L94.4,100.0 L95.0,109.7 L95.6,118.4 L96.1,125.3 L96.7,129.8 L97.2,131.3 L97.8,129.8 L98.3,125.3 L98.9,118.4 L99.4,109.7 L100.0,100.0 L100.6,90.3 L101.1,81.6 L101.7,74.7 L102.2,70.2 L102.8,68.7 L103.3,70.2 L103.9,74.7 L104.4,81.6 L105.0,90.3 L105.6,100.0 L106.1,109.7 L106.7,118.4 L107.2,125.3 L107.8,129.8 L108.3,131.3 L108.9,129.8 L109.4,125.3 L110.0,118.4 L110.6,109.7 L111.1,100.0 L111.7,90.3 L112.2,81.6 L112.8,74.7 L113.3,70.2 L113.9,68.7 L114.4,70.2 L115.0,74.7 L115.6,81.6 L116.1,90.3 L116.7,100.0 L117.2,109.7 L117.8,118.4 L118.3,125.3 L118.9,129.8 L119.4,131.3 L120.0,129.8 L120.6,125.3 L121.1,118.4 L121.7,109.7 L122.2,100.0 L122.8,90.3 L123.3,81.6 L123.9,74.7 L124.4,70.2 L125.0,68.7 L125.6,70.2 L126.1,74.7 L126.7,81.6 L127.2,90.3 L127.8,100.0 L128.3,109.7 L128.9,118.4 L129.4,125.3 L130.0,129.8 L130.6,131.3 L131.1,129.8 L131.7,125.3 L132.2,118.4 L132.8,109.7 L133.3,100.0 L133.9,90.3 L134.4,81.6 L135.0,74.7 L135.6,70.2 L136.1,68.7 L136.7,70.2 L137.2,74.7 L137.8,81.6 L138.3,90.3 L138.9,100.0 L139.4,109.7 L140.0,118.4 L140.6,125.3 L141.1,129.8 L141.7,131.3 L142.2,129.8 L142.8,125.3 L143.3,118.4 L143.9,109.7 L144.4,100.0 L145.0,90.3 L145.6,81.6 L146.1,74.7 L146.7,70.2 L147.2,68.7 L147.8,70.2 L148.3,74.7 L148.9,81.6 L149.4,90.3 L150.0,100.0 " stroke="#7A5A47" stroke-width="3" fill="none" stroke-linecap="round"/>
        <circle cx="100" cy="100" r="45" stroke="#C4A35A" stroke-width="1" stroke-dasharray="3,3" fill="none"/>
      
  <g stroke="#7A5A47" stroke-width="1" fill="#7A5A47" font-size="9" font-family="Consolas, monospace">
    <line x1="25" y1="185" x2="175" y2="185"/>
    <line x1="25" y1="180" x2="25" y2="190"/>
    <line x1="175" y1="180" x2="175" y2="190"/>
    <text x="100" y="195" text-anchor="middle">6.1×9.3cm</text>
  </g>
  <text x="100" y="172" text-anchor="middle" fill="#5C4033" font-size="11" font-family="SimSun, STSong, serif" font-weight="bold">涡卷弹簧</text>
</svg>