<svg xmlns="http://www.w3.org/2000/svg" viewBox="0 0 200 200">
  <defs>
    <pattern id="grid-spring-077" width="10" height="10" patternUnits="userSpaceOnUse">
      <path d="M 10 0 L 0 0 0 10" fill="none" stroke="rgba(92, 64, 51, 0.05)" stroke-width="0.5"/>
    </pattern>
  </defs>
  <rect width="200" height="200" fill="url(#grid-spring-077)"/>
  
        <rect x="30" y="65" width="15" height="70" stroke="#5C4033" stroke-width="2" fill="#E8DFD0"/>
        <rect x="155" y="65" width="15" height="70" stroke="#5C4033" stroke-width="2" fill="#E8DFD0"/>
        <path d="M50.0,100.0 L50.6,109.8 L51.1,118.6 L51.7,125.5 L52.2,130.0 L52.8,131.6 L53.3,130.0 L53.9,125.5 L54.4,118.6 L55.0,109.8 L55.6,100.0 L56.1,90.2 L56.7,81.4 L57.2,74.5 L57.8,70.0 L58.3,68.4 L58.9,70.0 L59.4,74.5 L60.0,81.4 L60.6,90.2 L61.1,100.0 L61.7,109.8 L62.2,118.6 L62.8,125.5 L63.3,130.0 L63.9,131.6 L64.4,130.0 L65.0,125.5 L65.6,118.6 L66.1,109.8 L66.7,100.0 L67.2,90.2 L67.8,81.4 L68.3,74.5 L68.9,70.0 L69.4,68.4 L70.0,70.0 L70.6,74.5 L71.1,81.4 L71.7,90.2 L72.2,100.0 L72.8,109.8 L73.3,118.6 L73.9,125.5 L74.4,130.0 L75.0,131.6 L75.6,130.0 L76.1,125.5 L76.7,118.6 L77.2,109.8 L77.8,100.0 L78.3,90.2 L78.9,81.4 L79.4,74.5 L80.0,70.0 L80.6,68.4 L81.1,70.0 L81.7,74.5 L82.2,81.4 L82.8,90.2 L83.3,100.0 L83.9,109.8 L84.4,118.6 L85.0,125.5 L85.6,130.0 L86.1,131.6 L86.7,130.0 L87.2,125.5 L87.8,118.6 L88.3,109.8 L88.9,100.0 L89.4,90.2 L90.0,81.4 L90.6,74.5 L91.1,70.0 L91.7,68.4 L92.2,70.0 L92.8,74.5 L93.3,81.4 L93.9,90.2 L94.4,100.0 L95.0,109.8 L95.6,118.6 L96.1,125.5 L96.7,130.0 L97.2,131.6 L97.8,130.0 L98.3,125.5 L98.9,118.6 L99.4,109.8 L100.0,100.0 L100.6,90.2 L101.1,81.4 L101.7,74.5 L102.2,70.0 L102.8,68.4 L103.3,70.0 L103.9,74.5 L104.4,81.4 L105.0,90.2 L105.6,100.0 L106.1,109.8 L106.7,118.6 L107.2,125.5 L107.8,130.0 L108.3,131.6 L108.9,130.0 L109.4,125.5 L110.0,118.6 L110.6,109.8 L111.1,100.0 L111.7,90.2 L112.2,81.4 L112.8,74.5 L113.3,70.0 L113.9,68.4 L114.4,70.0 L115.0,74.5 L115.6,81.4 L116.1,90.2 L116.7,100.0 L117.2,109.8 L117.8,118.6 L118.3,125.5 L118.9,130.0 L119.4,131.6 L120.0,130.0 L120.6,125.5 L121.1,118.6 L121.7,109.8 L122.2,100.0 L122.8,90.2 L123.3,81.4 L123.9,74.5 L124.4,70.0 L125.0,68.4 L125.6,70.0 L126.1,74.5 L126.7,81.4 L127.2,90.2 L127.8,100.0 L128.3,109.8 L128.9,118.6 L129.4,125.5 L130.0,130.0 L130.6,131.6 L131.1,130.0 L131.7,125.5 L132.2,118.6 L132.8,109.8 L133.3,100.0 L133.9,90.2 L134.4,81.4 L135.0,74.5 L135.6,70.0 L136.1,68.4 L136.7,70.0 L137.2,74.5 L137.8,81.4 L138.3,90.2 L138.9,100.0 L139.4,109.8 L140.0,118.6 L140.6,125.5 L141.1,130.0 L141.7,131.6 L142.2,130.0 L142.8,125.5 L143.3,118.6 L143.9,109.8 L144.4,100.0 L145.0,90.2 L145.6,81.4 L146.1,74.5 L146.7,70.0 L147.2,68.4 L147.8,70.0 L148.3,74.5 L148.9,81.4 L149.4,90.2 L150.0,100.0 " stroke="#7A5A47" stroke-width="3" fill="none" stroke-linecap="round"/>
        <circle cx="100" cy="100" r="45" stroke="#C4A35A" stroke-width="1" stroke-dasharray="3,3" fill="none"/>
      
  <g stroke="#7A5A47" stroke-width="1" fill="#7A5A47" font-size="9" font-family="Consolas, monospace">
    <line x1="25" y1="185" x2="175" y2="185"/>
    <line x1="25" y1="180" x2="25" y2="190"/>
    <line x1="175" y1="180" x2="175" y2="190"/>
    <text x="100" y="195" text-anchor="middle">直径 15cm</text>
  </g>
  <text x="100" y="172" text-anchor="middle" fill="#5C4033" font-size="11" font-family="SimSun, STSong, serif" font-weight="bold">液压储能腔</text>
</svg>