<svg xmlns="http://www.w3.org/2000/svg" viewBox="0 0 200 200">
  <defs>
    <pattern id="grid-spring-091" width="10" height="10" patternUnits="userSpaceOnUse">
      <path d="M 10 0 L 0 0 0 10" fill="none" stroke="rgba(92, 64, 51, 0.05)" stroke-width="0.5"/>
    </pattern>
  </defs>
  <rect width="200" height="200" fill="url(#grid-spring-091)"/>
  
        <rect x="30" y="65" width="15" height="70" stroke="#5C4033" stroke-width="2" fill="#E8DFD0"/>
        <rect x="155" y="65" width="15" height="70" stroke="#5C4033" stroke-width="2" fill="#E8DFD0"/>
        <path d="M50.0,100.0 L50.6,108.5 L51.1,116.2 L51.7,122.3 L52.2,126.2 L52.8,127.5 L53.3,126.2 L53.9,122.3 L54.4,116.2 L55.0,108.5 L55.6,100.0 L56.1,91.5 L56.7,83.8 L57.2,77.7 L57.8,73.8 L58.3,72.5 L58.9,73.8 L59.4,77.7 L60.0,83.8 L60.6,91.5 L61.1,100.0 L61.7,108.5 L62.2,116.2 L62.8,122.3 L63.3,126.2 L63.9,127.5 L64.4,126.2 L65.0,122.3 L65.6,116.2 L66.1,108.5 L66.7,100.0 L67.2,91.5 L67.8,83.8 L68.3,77.7 L68.9,73.8 L69.4,72.5 L70.0,73.8 L70.6,77.7 L71.1,83.8 L71.7,91.5 L72.2,100.0 L72.8,108.5 L73.3,116.2 L73.9,122.3 L74.4,126.2 L75.0,127.5 L75.6,126.2 L76.1,122.3 L76.7,116.2 L77.2,108.5 L77.8,100.0 L78.3,91.5 L78.9,83.8 L79.4,77.7 L80.0,73.8 L80.6,72.5 L81.1,73.8 L81.7,77.7 L82.2,83.8 L82.8,91.5 L83.3,100.0 L83.9,108.5 L84.4,116.2 L85.0,122.3 L85.6,126.2 L86.1,127.5 L86.7,126.2 L87.2,122.3 L87.8,116.2 L88.3,108.5 L88.9,100.0 L89.4,91.5 L90.0,83.8 L90.6,77.7 L91.1,73.8 L91.7,72.5 L92.2,73.8 L92.8,77.7 L93.3,83.8 L93.9,91.5 L94.4,100.0 L95.0,108.5 L95.6,116.2 L96.1,122.3 L96.7,126.2 L97.2,127.5 L97.8,126.2 L98.3,122.3 L98.9,116.2 L99.4,108.5 L100.0,100.0 L100.6,91.5 L101.1,83.8 L101.7,77.7 L102.2,73.8 L102.8,72.5 L103.3,73.8 L103.9,77.7 L104.4,83.8 L105.0,91.5 L105.6,100.0 L106.1,108.5 L106.7,116.2 L107.2,122.3 L107.8,126.2 L108.3,127.5 L108.9,126.2 L109.4,122.3 L110.0,116.2 L110.6,108.5 L111.1,100.0 L111.7,91.5 L112.2,83.8 L112.8,77.7 L113.3,73.8 L113.9,72.5 L114.4,73.8 L115.0,77.7 L115.6,83.8 L116.1,91.5 L116.7,100.0 L117.2,108.5 L117.8,116.2 L118.3,122.3 L118.9,126.2 L119.4,127.5 L120.0,126.2 L120.6,122.3 L121.1,116.2 L121.7,108.5 L122.2,100.0 L122.8,91.5 L123.3,83.8 L123.9,77.7 L124.4,73.8 L125.0,72.5 L125.6,73.8 L126.1,77.7 L126.7,83.8 L127.2,91.5 L127.8,100.0 L128.3,108.5 L128.9,116.2 L129.4,122.3 L130.0,126.2 L130.6,127.5 L131.1,126.2 L131.7,122.3 L132.2,116.2 L132.8,108.5 L133.3,100.0 L133.9,91.5 L134.4,83.8 L135.0,77.7 L135.6,73.8 L136.1,72.5 L136.7,73.8 L137.2,77.7 L137.8,83.8 L138.3,91.5 L138.9,100.0 L139.4,108.5 L140.0,116.2 L140.6,122.3 L141.1,126.2 L141.7,127.5 L142.2,126.2 L142.8,122.3 L143.3,116.2 L143.9,108.5 L144.4,100.0 L145.0,91.5 L145.6,83.8 L146.1,77.7 L146.7,73.8 L147.2,72.5 L147.8,73.8 L148.3,77.7 L148.9,83.8 L149.4,91.5 L150.0,100.0 " stroke="#7A5A47" stroke-width="3" fill="none" stroke-linecap="round"/>
        <circle cx="100" cy="100" r="45" stroke="#C4A35A" stroke-width="1" stroke-dasharray="3,3" fill="none"/>
      
  <g stroke="#7A5A47" stroke-width="1" fill="#7A5A47" font-size="9" font-family="Consolas, monospace">
    <line x1="25" y1="185" x2="175" y2="185"/>
    <line x1="25" y1="180" x2="25" y2="190"/>
    <line x1="175" y1="180" x2="175" y2="190"/>
    <text x="100" y="195" text-anchor="middle">直径 14cm</text>
  </g>
  <text x="100" y="172" text-anchor="middle" fill="#5C4033" font-size="11" font-family="SimSun, STSong, serif" font-weight="bold">橡皮筋束丙</text>
</svg>