<svg xmlns="http://www.w3.org/2000/svg" viewBox="0 0 200 200" fill="none" stroke="#5C4033" stroke-width="2">
  <path d="M100 40 Q85 50 85 65 Q85 80 100 90 Q115 100 100 115 Q85 130 100 145 Q115 160 100 170" 
        stroke="#5C4033" stroke-width="2.5" fill="none"/>
  <path d="M88 45 Q78 55 78 68 Q78 82 88 92 Q98 102 88 115 Q78 128 88 142 Q98 155 88 165" 
        stroke="#5C4033" stroke-width="2" fill="none"/>
  <path d="M112 45 Q122 55 122 68 Q122 82 112 92 Q102 102 112 115 Q122 128 112 142 Q102 155 112 165" 
        stroke="#5C4033" stroke-width="2" fill="none"/>
  <line x1="100" y1="30" x2="100" y2="40" stroke="#5C4033" stroke-width="2"/>
  <line x1="100" y1="170" x2="100" y2="180" stroke="#5C4033" stroke-width="2"/>
  <circle cx="100" cy="28" r="4" stroke="#5C4033" stroke-width="1.5" fill="none"/>
  <circle cx="100" cy="182" r="4" stroke="#5C4033" stroke-width="1.5" fill="none"/>
  <text x="100" y="195" text-anchor="middle" font-size="9" fill="#5C4033" font-family="serif">扭力弹簧</text>
</svg>
