<svg xmlns="http://www.w3.org/2000/svg" viewBox="0 0 200 200">
  <defs>
    <pattern id="grid-spring-084" width="10" height="10" patternUnits="userSpaceOnUse">
      <path d="M 10 0 L 0 0 0 10" fill="none" stroke="rgba(92, 64, 51, 0.05)" stroke-width="0.5"/>
    </pattern>
  </defs>
  <rect width="200" height="200" fill="url(#grid-spring-084)"/>
  
        <rect x="30" y="65" width="15" height="70" stroke="#5C4033" stroke-width="2" fill="#E8DFD0"/>
        <rect x="155" y="65" width="15" height="70" stroke="#5C4033" stroke-width="2" fill="#E8DFD0"/>
        <path d="M50.0,100.0 L50.7,108.4 L51.4,116.0 L52.1,122.1 L52.9,125.9 L53.6,127.3 L54.3,125.9 L55.0,122.1 L55.7,116.0 L56.4,108.4 L57.1,100.0 L57.9,91.6 L58.6,84.0 L59.3,77.9 L60.0,74.1 L60.7,72.7 L61.4,74.1 L62.1,77.9 L62.9,84.0 L63.6,91.6 L64.3,100.0 L65.0,108.4 L65.7,116.0 L66.4,122.1 L67.1,125.9 L67.9,127.3 L68.6,125.9 L69.3,122.1 L70.0,116.0 L70.7,108.4 L71.4,100.0 L72.1,91.6 L72.9,84.0 L73.6,77.9 L74.3,74.1 L75.0,72.7 L75.7,74.1 L76.4,77.9 L77.1,84.0 L77.9,91.6 L78.6,100.0 L79.3,108.4 L80.0,116.0 L80.7,122.1 L81.4,125.9 L82.1,127.3 L82.9,125.9 L83.6,122.1 L84.3,116.0 L85.0,108.4 L85.7,100.0 L86.4,91.6 L87.1,84.0 L87.9,77.9 L88.6,74.1 L89.3,72.7 L90.0,74.1 L90.7,77.9 L91.4,84.0 L92.1,91.6 L92.9,100.0 L93.6,108.4 L94.3,116.0 L95.0,122.1 L95.7,125.9 L96.4,127.3 L97.1,125.9 L97.9,122.1 L98.6,116.0 L99.3,108.4 L100.0,100.0 L100.7,91.6 L101.4,84.0 L102.1,77.9 L102.9,74.1 L103.6,72.7 L104.3,74.1 L105.0,77.9 L105.7,84.0 L106.4,91.6 L107.1,100.0 L107.9,108.4 L108.6,116.0 L109.3,122.1 L110.0,125.9 L110.7,127.3 L111.4,125.9 L112.1,122.1 L112.9,116.0 L113.6,108.4 L114.3,100.0 L115.0,91.6 L115.7,84.0 L116.4,77.9 L117.1,74.1 L117.9,72.7 L118.6,74.1 L119.3,77.9 L120.0,84.0 L120.7,91.6 L121.4,100.0 L122.1,108.4 L122.9,116.0 L123.6,122.1 L124.3,125.9 L125.0,127.3 L125.7,125.9 L126.4,122.1 L127.1,116.0 L127.9,108.4 L128.6,100.0 L129.3,91.6 L130.0,84.0 L130.7,77.9 L131.4,74.1 L132.1,72.7 L132.9,74.1 L133.6,77.9 L134.3,84.0 L135.0,91.6 L135.7,100.0 L136.4,108.4 L137.1,116.0 L137.9,122.1 L138.6,125.9 L139.3,127.3 L140.0,125.9 L140.7,122.1 L141.4,116.0 L142.1,108.4 L142.9,100.0 L143.6,91.6 L144.3,84.0 L145.0,77.9 L145.7,74.1 L146.4,72.7 L147.1,74.1 L147.9,77.9 L148.6,84.0 L149.3,91.6 L150.0,100.0 " stroke="#7A5A47" stroke-width="3" fill="none" stroke-linecap="round"/>
        <circle cx="100" cy="100" r="45" stroke="#C4A35A" stroke-width="1" stroke-dasharray="3,3" fill="none"/>
      
  <g stroke="#7A5A47" stroke-width="1" fill="#7A5A47" font-size="9" font-family="Consolas, monospace">
    <line x1="25" y1="185" x2="175" y2="185"/>
    <line x1="25" y1="180" x2="25" y2="190"/>
    <line x1="175" y1="180" x2="175" y2="190"/>
    <text x="100" y="195" text-anchor="middle">43.3×7.9cm</text>
  </g>
  <text x="100" y="172" text-anchor="middle" fill="#5C4033" font-size="11" font-family="SimSun, STSong, serif" font-weight="bold">气压储能罐乙</text>
</svg>