<svg xmlns="http://www.w3.org/2000/svg" viewBox="0 0 200 200">
  <defs>
    <pattern id="grid-spring-083" width="10" height="10" patternUnits="userSpaceOnUse">
      <path d="M 10 0 L 0 0 0 10" fill="none" stroke="rgba(92, 64, 51, 0.05)" stroke-width="0.5"/>
    </pattern>
  </defs>
  <rect width="200" height="200" fill="url(#grid-spring-083)"/>
  
        <rect x="30" y="65" width="15" height="70" stroke="#5C4033" stroke-width="2" fill="#E8DFD0"/>
        <rect x="155" y="65" width="15" height="70" stroke="#5C4033" stroke-width="2" fill="#E8DFD0"/>
        <path d="M50.0,100.0 L51.0,107.7 L52.0,114.7 L53.0,120.3 L54.0,123.8 L55.0,125.0 L56.0,123.8 L57.0,120.3 L58.0,114.7 L59.0,107.7 L60.0,100.0 L61.0,92.3 L62.0,85.3 L63.0,79.7 L64.0,76.2 L65.0,75.0 L66.0,76.2 L67.0,79.7 L68.0,85.3 L69.0,92.3 L70.0,100.0 L71.0,107.7 L72.0,114.7 L73.0,120.3 L74.0,123.8 L75.0,125.0 L76.0,123.8 L77.0,120.3 L78.0,114.7 L79.0,107.7 L80.0,100.0 L81.0,92.3 L82.0,85.3 L83.0,79.7 L84.0,76.2 L85.0,75.0 L86.0,76.2 L87.0,79.7 L88.0,85.3 L89.0,92.3 L90.0,100.0 L91.0,107.7 L92.0,114.7 L93.0,120.3 L94.0,123.8 L95.0,125.0 L96.0,123.8 L97.0,120.3 L98.0,114.7 L99.0,107.7 L100.0,100.0 L101.0,92.3 L102.0,85.3 L103.0,79.7 L104.0,76.2 L105.0,75.0 L106.0,76.2 L107.0,79.7 L108.0,85.3 L109.0,92.3 L110.0,100.0 L111.0,107.7 L112.0,114.7 L113.0,120.3 L114.0,123.8 L115.0,125.0 L116.0,123.8 L117.0,120.3 L118.0,114.7 L119.0,107.7 L120.0,100.0 L121.0,92.3 L122.0,85.3 L123.0,79.7 L124.0,76.2 L125.0,75.0 L126.0,76.2 L127.0,79.7 L128.0,85.3 L129.0,92.3 L130.0,100.0 L131.0,107.7 L132.0,114.7 L133.0,120.3 L134.0,123.8 L135.0,125.0 L136.0,123.8 L137.0,120.3 L138.0,114.7 L139.0,107.7 L140.0,100.0 L141.0,92.3 L142.0,85.3 L143.0,79.7 L144.0,76.2 L145.0,75.0 L146.0,76.2 L147.0,79.7 L148.0,85.3 L149.0,92.3 L150.0,100.0 " stroke="#7A5A47" stroke-width="3" fill="none" stroke-linecap="round"/>
        <circle cx="100" cy="100" r="45" stroke="#C4A35A" stroke-width="1" stroke-dasharray="3,3" fill="none"/>
      
  <g stroke="#7A5A47" stroke-width="1" fill="#7A5A47" font-size="9" font-family="Consolas, monospace">
    <line x1="25" y1="185" x2="175" y2="185"/>
    <line x1="25" y1="180" x2="25" y2="190"/>
    <line x1="175" y1="180" x2="175" y2="190"/>
    <text x="100" y="195" text-anchor="middle">43.6×11.4cm</text>
  </g>
  <text x="100" y="172" text-anchor="middle" fill="#5C4033" font-size="11" font-family="SimSun, STSong, serif" font-weight="bold">橡皮筋束乙</text>
</svg>