<svg xmlns="http://www.w3.org/2000/svg" viewBox="0 0 200 200">
  <defs>
    <pattern id="grid-spring-095" width="10" height="10" patternUnits="userSpaceOnUse">
      <path d="M 10 0 L 0 0 0 10" fill="none" stroke="rgba(92, 64, 51, 0.05)" stroke-width="0.5"/>
    </pattern>
  </defs>
  <rect width="200" height="200" fill="url(#grid-spring-095)"/>
  
        <rect x="30" y="65" width="15" height="70" stroke="#5C4033" stroke-width="2" fill="#E8DFD0"/>
        <rect x="155" y="65" width="15" height="70" stroke="#5C4033" stroke-width="2" fill="#E8DFD0"/>
        <path d="M50.0,100.0 L51.0,108.9 L52.0,116.9 L53.0,123.2 L54.0,127.3 L55.0,128.7 L56.0,127.3 L57.0,123.2 L58.0,116.9 L59.0,108.9 L60.0,100.0 L61.0,91.1 L62.0,83.1 L63.0,76.8 L64.0,72.7 L65.0,71.3 L66.0,72.7 L67.0,76.8 L68.0,83.1 L69.0,91.1 L70.0,100.0 L71.0,108.9 L72.0,116.9 L73.0,123.2 L74.0,127.3 L75.0,128.7 L76.0,127.3 L77.0,123.2 L78.0,116.9 L79.0,108.9 L80.0,100.0 L81.0,91.1 L82.0,83.1 L83.0,76.8 L84.0,72.7 L85.0,71.3 L86.0,72.7 L87.0,76.8 L88.0,83.1 L89.0,91.1 L90.0,100.0 L91.0,108.9 L92.0,116.9 L93.0,123.2 L94.0,127.3 L95.0,128.7 L96.0,127.3 L97.0,123.2 L98.0,116.9 L99.0,108.9 L100.0,100.0 L101.0,91.1 L102.0,83.1 L103.0,76.8 L104.0,72.7 L105.0,71.3 L106.0,72.7 L107.0,76.8 L108.0,83.1 L109.0,91.1 L110.0,100.0 L111.0,108.9 L112.0,116.9 L113.0,123.2 L114.0,127.3 L115.0,128.7 L116.0,127.3 L117.0,123.2 L118.0,116.9 L119.0,108.9 L120.0,100.0 L121.0,91.1 L122.0,83.1 L123.0,76.8 L124.0,72.7 L125.0,71.3 L126.0,72.7 L127.0,76.8 L128.0,83.1 L129.0,91.1 L130.0,100.0 L131.0,108.9 L132.0,116.9 L133.0,123.2 L134.0,127.3 L135.0,128.7 L136.0,127.3 L137.0,123.2 L138.0,116.9 L139.0,108.9 L140.0,100.0 L141.0,91.1 L142.0,83.1 L143.0,76.8 L144.0,72.7 L145.0,71.3 L146.0,72.7 L147.0,76.8 L148.0,83.1 L149.0,91.1 L150.0,100.0 " stroke="#7A5A47" stroke-width="3" fill="none" stroke-linecap="round"/>
        <circle cx="100" cy="100" r="45" stroke="#C4A35A" stroke-width="1" stroke-dasharray="3,3" fill="none"/>
      
  <g stroke="#7A5A47" stroke-width="1" fill="#7A5A47" font-size="9" font-family="Consolas, monospace">
    <line x1="25" y1="185" x2="175" y2="185"/>
    <line x1="25" y1="180" x2="25" y2="190"/>
    <line x1="175" y1="180" x2="175" y2="190"/>
    <text x="100" y="195" text-anchor="middle">40.8×10cm</text>
  </g>
  <text x="100" y="172" text-anchor="middle" fill="#5C4033" font-size="11" font-family="SimSun, STSong, serif" font-weight="bold">扭力弹簧丁</text>
</svg>