<svg xmlns="http://www.w3.org/2000/svg" viewBox="0 0 200 200">
  <defs>
    <pattern id="grid-spring-076" width="10" height="10" patternUnits="userSpaceOnUse">
      <path d="M 10 0 L 0 0 0 10" fill="none" stroke="rgba(92, 64, 51, 0.05)" stroke-width="0.5"/>
    </pattern>
  </defs>
  <rect width="200" height="200" fill="url(#grid-spring-076)"/>
  
        <rect x="30" y="65" width="15" height="70" stroke="#5C4033" stroke-width="2" fill="#E8DFD0"/>
        <rect x="155" y="65" width="15" height="70" stroke="#5C4033" stroke-width="2" fill="#E8DFD0"/>
        <path d="M50.0,100.0 L50.8,109.1 L51.7,117.2 L52.5,123.7 L53.3,127.9 L54.2,129.3 L55.0,127.9 L55.8,123.7 L56.7,117.2 L57.5,109.1 L58.3,100.0 L59.2,90.9 L60.0,82.8 L60.8,76.3 L61.7,72.1 L62.5,70.7 L63.3,72.1 L64.2,76.3 L65.0,82.8 L65.8,90.9 L66.7,100.0 L67.5,109.1 L68.3,117.2 L69.2,123.7 L70.0,127.9 L70.8,129.3 L71.7,127.9 L72.5,123.7 L73.3,117.2 L74.2,109.1 L75.0,100.0 L75.8,90.9 L76.7,82.8 L77.5,76.3 L78.3,72.1 L79.2,70.7 L80.0,72.1 L80.8,76.3 L81.7,82.8 L82.5,90.9 L83.3,100.0 L84.2,109.1 L85.0,117.2 L85.8,123.7 L86.7,127.9 L87.5,129.3 L88.3,127.9 L89.2,123.7 L90.0,117.2 L90.8,109.1 L91.7,100.0 L92.5,90.9 L93.3,82.8 L94.2,76.3 L95.0,72.1 L95.8,70.7 L96.7,72.1 L97.5,76.3 L98.3,82.8 L99.2,90.9 L100.0,100.0 L100.8,109.1 L101.7,117.2 L102.5,123.7 L103.3,127.9 L104.2,129.3 L105.0,127.9 L105.8,123.7 L106.7,117.2 L107.5,109.1 L108.3,100.0 L109.2,90.9 L110.0,82.8 L110.8,76.3 L111.7,72.1 L112.5,70.7 L113.3,72.1 L114.2,76.3 L115.0,82.8 L115.8,90.9 L116.7,100.0 L117.5,109.1 L118.3,117.2 L119.2,123.7 L120.0,127.9 L120.8,129.3 L121.7,127.9 L122.5,123.7 L123.3,117.2 L124.2,109.1 L125.0,100.0 L125.8,90.9 L126.7,82.8 L127.5,76.3 L128.3,72.1 L129.2,70.7 L130.0,72.1 L130.8,76.3 L131.7,82.8 L132.5,90.9 L133.3,100.0 L134.2,109.1 L135.0,117.2 L135.8,123.7 L136.7,127.9 L137.5,129.3 L138.3,127.9 L139.2,123.7 L140.0,117.2 L140.8,109.1 L141.7,100.0 L142.5,90.9 L143.3,82.8 L144.2,76.3 L145.0,72.1 L145.8,70.7 L146.7,72.1 L147.5,76.3 L148.3,82.8 L149.2,90.9 L150.0,100.0 " stroke="#7A5A47" stroke-width="3" fill="none" stroke-linecap="round"/>
        <circle cx="100" cy="100" r="45" stroke="#C4A35A" stroke-width="1" stroke-dasharray="3,3" fill="none"/>
      
  <g stroke="#7A5A47" stroke-width="1" fill="#7A5A47" font-size="9" font-family="Consolas, monospace">
    <line x1="25" y1="185" x2="175" y2="185"/>
    <line x1="25" y1="180" x2="25" y2="190"/>
    <line x1="175" y1="180" x2="175" y2="190"/>
    <text x="100" y="195" text-anchor="middle">直径 3.1cm</text>
  </g>
  <text x="100" y="172" text-anchor="middle" fill="#5C4033" font-size="11" font-family="SimSun, STSong, serif" font-weight="bold">气压储能罐</text>
</svg>