<svg xmlns="http://www.w3.org/2000/svg" viewBox="0 0 200 200">
  <defs>
    <pattern id="grid-spring-080" width="10" height="10" patternUnits="userSpaceOnUse">
      <path d="M 10 0 L 0 0 0 10" fill="none" stroke="rgba(92, 64, 51, 0.05)" stroke-width="0.5"/>
    </pattern>
  </defs>
  <rect width="200" height="200" fill="url(#grid-spring-080)"/>
  
        <rect x="30" y="65" width="15" height="70" stroke="#5C4033" stroke-width="2" fill="#E8DFD0"/>
        <rect x="155" y="65" width="15" height="70" stroke="#5C4033" stroke-width="2" fill="#E8DFD0"/>
        <path d="M50.0,100.0 L50.6,109.8 L51.3,118.7 L51.9,125.7 L52.5,130.3 L53.1,131.8 L53.8,130.3 L54.4,125.7 L55.0,118.7 L55.6,109.8 L56.3,100.0 L56.9,90.2 L57.5,81.3 L58.1,74.3 L58.8,69.7 L59.4,68.2 L60.0,69.7 L60.6,74.3 L61.3,81.3 L61.9,90.2 L62.5,100.0 L63.1,109.8 L63.8,118.7 L64.4,125.7 L65.0,130.3 L65.6,131.8 L66.3,130.3 L66.9,125.7 L67.5,118.7 L68.1,109.8 L68.8,100.0 L69.4,90.2 L70.0,81.3 L70.6,74.3 L71.3,69.7 L71.9,68.2 L72.5,69.7 L73.1,74.3 L73.8,81.3 L74.4,90.2 L75.0,100.0 L75.6,109.8 L76.3,118.7 L76.9,125.7 L77.5,130.3 L78.1,131.8 L78.8,130.3 L79.4,125.7 L80.0,118.7 L80.6,109.8 L81.3,100.0 L81.9,90.2 L82.5,81.3 L83.1,74.3 L83.8,69.7 L84.4,68.2 L85.0,69.7 L85.6,74.3 L86.3,81.3 L86.9,90.2 L87.5,100.0 L88.1,109.8 L88.8,118.7 L89.4,125.7 L90.0,130.3 L90.6,131.8 L91.3,130.3 L91.9,125.7 L92.5,118.7 L93.1,109.8 L93.8,100.0 L94.4,90.2 L95.0,81.3 L95.6,74.3 L96.3,69.7 L96.9,68.2 L97.5,69.7 L98.1,74.3 L98.8,81.3 L99.4,90.2 L100.0,100.0 L100.6,109.8 L101.3,118.7 L101.9,125.7 L102.5,130.3 L103.1,131.8 L103.8,130.3 L104.4,125.7 L105.0,118.7 L105.6,109.8 L106.3,100.0 L106.9,90.2 L107.5,81.3 L108.1,74.3 L108.8,69.7 L109.4,68.2 L110.0,69.7 L110.6,74.3 L111.3,81.3 L111.9,90.2 L112.5,100.0 L113.1,109.8 L113.8,118.7 L114.4,125.7 L115.0,130.3 L115.6,131.8 L116.3,130.3 L116.9,125.7 L117.5,118.7 L118.1,109.8 L118.8,100.0 L119.4,90.2 L120.0,81.3 L120.6,74.3 L121.3,69.7 L121.9,68.2 L122.5,69.7 L123.1,74.3 L123.8,81.3 L124.4,90.2 L125.0,100.0 L125.6,109.8 L126.3,118.7 L126.9,125.7 L127.5,130.3 L128.1,131.8 L128.8,130.3 L129.4,125.7 L130.0,118.7 L130.6,109.8 L131.3,100.0 L131.9,90.2 L132.5,81.3 L133.1,74.3 L133.8,69.7 L134.4,68.2 L135.0,69.7 L135.6,74.3 L136.3,81.3 L136.9,90.2 L137.5,100.0 L138.1,109.8 L138.8,118.7 L139.4,125.7 L140.0,130.3 L140.6,131.8 L141.3,130.3 L141.9,125.7 L142.5,118.7 L143.1,109.8 L143.8,100.0 L144.4,90.2 L145.0,81.3 L145.6,74.3 L146.3,69.7 L146.9,68.2 L147.5,69.7 L148.1,74.3 L148.8,81.3 L149.4,90.2 L150.0,100.0 " stroke="#7A5A47" stroke-width="3" fill="none" stroke-linecap="round"/>
        <circle cx="100" cy="100" r="45" stroke="#C4A35A" stroke-width="1" stroke-dasharray="3,3" fill="none"/>
      
  <g stroke="#7A5A47" stroke-width="1" fill="#7A5A47" font-size="9" font-family="Consolas, monospace">
    <line x1="25" y1="185" x2="175" y2="185"/>
    <line x1="25" y1="180" x2="25" y2="190"/>
    <line x1="175" y1="180" x2="175" y2="190"/>
    <text x="100" y="195" text-anchor="middle">直径 14.8cm</text>
  </g>
  <text x="100" y="172" text-anchor="middle" fill="#5C4033" font-size="11" font-family="SimSun, STSong, serif" font-weight="bold">涡卷弹簧乙</text>
</svg>