<svg xmlns="http://www.w3.org/2000/svg" viewBox="0 0 200 200">
  <defs>
    <pattern id="grid-spring-092" width="10" height="10" patternUnits="userSpaceOnUse">
      <path d="M 10 0 L 0 0 0 10" fill="none" stroke="rgba(92, 64, 51, 0.05)" stroke-width="0.5"/>
    </pattern>
  </defs>
  <rect width="200" height="200" fill="url(#grid-spring-092)"/>
  
        <rect x="30" y="65" width="15" height="70" stroke="#5C4033" stroke-width="2" fill="#E8DFD0"/>
        <rect x="155" y="65" width="15" height="70" stroke="#5C4033" stroke-width="2" fill="#E8DFD0"/>
        <path d="M50.0,100.0 L50.6,110.4 L51.3,119.8 L51.9,127.3 L52.5,132.1 L53.1,133.8 L53.8,132.1 L54.4,127.3 L55.0,119.8 L55.6,110.4 L56.3,100.0 L56.9,89.6 L57.5,80.2 L58.1,72.7 L58.8,67.9 L59.4,66.2 L60.0,67.9 L60.6,72.7 L61.3,80.2 L61.9,89.6 L62.5,100.0 L63.1,110.4 L63.8,119.8 L64.4,127.3 L65.0,132.1 L65.6,133.8 L66.3,132.1 L66.9,127.3 L67.5,119.8 L68.1,110.4 L68.8,100.0 L69.4,89.6 L70.0,80.2 L70.6,72.7 L71.3,67.9 L71.9,66.2 L72.5,67.9 L73.1,72.7 L73.8,80.2 L74.4,89.6 L75.0,100.0 L75.6,110.4 L76.3,119.8 L76.9,127.3 L77.5,132.1 L78.1,133.8 L78.8,132.1 L79.4,127.3 L80.0,119.8 L80.6,110.4 L81.3,100.0 L81.9,89.6 L82.5,80.2 L83.1,72.7 L83.8,67.9 L84.4,66.2 L85.0,67.9 L85.6,72.7 L86.3,80.2 L86.9,89.6 L87.5,100.0 L88.1,110.4 L88.8,119.8 L89.4,127.3 L90.0,132.1 L90.6,133.8 L91.3,132.1 L91.9,127.3 L92.5,119.8 L93.1,110.4 L93.8,100.0 L94.4,89.6 L95.0,80.2 L95.6,72.7 L96.3,67.9 L96.9,66.2 L97.5,67.9 L98.1,72.7 L98.8,80.2 L99.4,89.6 L100.0,100.0 L100.6,110.4 L101.3,119.8 L101.9,127.3 L102.5,132.1 L103.1,133.8 L103.8,132.1 L104.4,127.3 L105.0,119.8 L105.6,110.4 L106.3,100.0 L106.9,89.6 L107.5,80.2 L108.1,72.7 L108.8,67.9 L109.4,66.2 L110.0,67.9 L110.6,72.7 L111.3,80.2 L111.9,89.6 L112.5,100.0 L113.1,110.4 L113.8,119.8 L114.4,127.3 L115.0,132.1 L115.6,133.8 L116.3,132.1 L116.9,127.3 L117.5,119.8 L118.1,110.4 L118.8,100.0 L119.4,89.6 L120.0,80.2 L120.6,72.7 L121.3,67.9 L121.9,66.2 L122.5,67.9 L123.1,72.7 L123.8,80.2 L124.4,89.6 L125.0,100.0 L125.6,110.4 L126.3,119.8 L126.9,127.3 L127.5,132.1 L128.1,133.8 L128.8,132.1 L129.4,127.3 L130.0,119.8 L130.6,110.4 L131.3,100.0 L131.9,89.6 L132.5,80.2 L133.1,72.7 L133.8,67.9 L134.4,66.2 L135.0,67.9 L135.6,72.7 L136.3,80.2 L136.9,89.6 L137.5,100.0 L138.1,110.4 L138.8,119.8 L139.4,127.3 L140.0,132.1 L140.6,133.8 L141.3,132.1 L141.9,127.3 L142.5,119.8 L143.1,110.4 L143.8,100.0 L144.4,89.6 L145.0,80.2 L145.6,72.7 L146.3,67.9 L146.9,66.2 L147.5,67.9 L148.1,72.7 L148.8,80.2 L149.4,89.6 L150.0,100.0 " stroke="#7A5A47" stroke-width="3" fill="none" stroke-linecap="round"/>
        <circle cx="100" cy="100" r="45" stroke="#C4A35A" stroke-width="1" stroke-dasharray="3,3" fill="none"/>
      
  <g stroke="#7A5A47" stroke-width="1" fill="#7A5A47" font-size="9" font-family="Consolas, monospace">
    <line x1="25" y1="185" x2="175" y2="185"/>
    <line x1="25" y1="180" x2="25" y2="190"/>
    <line x1="175" y1="180" x2="175" y2="190"/>
    <text x="100" y="195" text-anchor="middle">直径 13.9cm</text>
  </g>
  <text x="100" y="172" text-anchor="middle" fill="#5C4033" font-size="11" font-family="SimSun, STSong, serif" font-weight="bold">气压储能罐丙</text>
</svg>