<svg xmlns="http://www.w3.org/2000/svg" viewBox="0 0 200 200">
  <defs>
    <pattern id="grid-spring-082" width="10" height="10" patternUnits="userSpaceOnUse">
      <path d="M 10 0 L 0 0 0 10" fill="none" stroke="rgba(92, 64, 51, 0.05)" stroke-width="0.5"/>
    </pattern>
  </defs>
  <rect width="200" height="200" fill="url(#grid-spring-082)"/>
  
        <rect x="30" y="65" width="15" height="70" stroke="#5C4033" stroke-width="2" fill="#E8DFD0"/>
        <rect x="155" y="65" width="15" height="70" stroke="#5C4033" stroke-width="2" fill="#E8DFD0"/>
        <path d="M50.0,100.0 L50.6,108.3 L51.1,115.8 L51.7,121.8 L52.2,125.6 L52.8,126.9 L53.3,125.6 L53.9,121.8 L54.4,115.8 L55.0,108.3 L55.6,100.0 L56.1,91.7 L56.7,84.2 L57.2,78.2 L57.8,74.4 L58.3,73.1 L58.9,74.4 L59.4,78.2 L60.0,84.2 L60.6,91.7 L61.1,100.0 L61.7,108.3 L62.2,115.8 L62.8,121.8 L63.3,125.6 L63.9,126.9 L64.4,125.6 L65.0,121.8 L65.6,115.8 L66.1,108.3 L66.7,100.0 L67.2,91.7 L67.8,84.2 L68.3,78.2 L68.9,74.4 L69.4,73.1 L70.0,74.4 L70.6,78.2 L71.1,84.2 L71.7,91.7 L72.2,100.0 L72.8,108.3 L73.3,115.8 L73.9,121.8 L74.4,125.6 L75.0,126.9 L75.6,125.6 L76.1,121.8 L76.7,115.8 L77.2,108.3 L77.8,100.0 L78.3,91.7 L78.9,84.2 L79.4,78.2 L80.0,74.4 L80.6,73.1 L81.1,74.4 L81.7,78.2 L82.2,84.2 L82.8,91.7 L83.3,100.0 L83.9,108.3 L84.4,115.8 L85.0,121.8 L85.6,125.6 L86.1,126.9 L86.7,125.6 L87.2,121.8 L87.8,115.8 L88.3,108.3 L88.9,100.0 L89.4,91.7 L90.0,84.2 L90.6,78.2 L91.1,74.4 L91.7,73.1 L92.2,74.4 L92.8,78.2 L93.3,84.2 L93.9,91.7 L94.4,100.0 L95.0,108.3 L95.6,115.8 L96.1,121.8 L96.7,125.6 L97.2,126.9 L97.8,125.6 L98.3,121.8 L98.9,115.8 L99.4,108.3 L100.0,100.0 L100.6,91.7 L101.1,84.2 L101.7,78.2 L102.2,74.4 L102.8,73.1 L103.3,74.4 L103.9,78.2 L104.4,84.2 L105.0,91.7 L105.6,100.0 L106.1,108.3 L106.7,115.8 L107.2,121.8 L107.8,125.6 L108.3,126.9 L108.9,125.6 L109.4,121.8 L110.0,115.8 L110.6,108.3 L111.1,100.0 L111.7,91.7 L112.2,84.2 L112.8,78.2 L113.3,74.4 L113.9,73.1 L114.4,74.4 L115.0,78.2 L115.6,84.2 L116.1,91.7 L116.7,100.0 L117.2,108.3 L117.8,115.8 L118.3,121.8 L118.9,125.6 L119.4,126.9 L120.0,125.6 L120.6,121.8 L121.1,115.8 L121.7,108.3 L122.2,100.0 L122.8,91.7 L123.3,84.2 L123.9,78.2 L124.4,74.4 L125.0,73.1 L125.6,74.4 L126.1,78.2 L126.7,84.2 L127.2,91.7 L127.8,100.0 L128.3,108.3 L128.9,115.8 L129.4,121.8 L130.0,125.6 L130.6,126.9 L131.1,125.6 L131.7,121.8 L132.2,115.8 L132.8,108.3 L133.3,100.0 L133.9,91.7 L134.4,84.2 L135.0,78.2 L135.6,74.4 L136.1,73.1 L136.7,74.4 L137.2,78.2 L137.8,84.2 L138.3,91.7 L138.9,100.0 L139.4,108.3 L140.0,115.8 L140.6,121.8 L141.1,125.6 L141.7,126.9 L142.2,125.6 L142.8,121.8 L143.3,115.8 L143.9,108.3 L144.4,100.0 L145.0,91.7 L145.6,84.2 L146.1,78.2 L146.7,74.4 L147.2,73.1 L147.8,74.4 L148.3,78.2 L148.9,84.2 L149.4,91.7 L150.0,100.0 " stroke="#7A5A47" stroke-width="3" fill="none" stroke-linecap="round"/>
        <circle cx="100" cy="100" r="45" stroke="#C4A35A" stroke-width="1" stroke-dasharray="3,3" fill="none"/>
      
  <g stroke="#7A5A47" stroke-width="1" fill="#7A5A47" font-size="9" font-family="Consolas, monospace">
    <line x1="25" y1="185" x2="175" y2="185"/>
    <line x1="25" y1="180" x2="25" y2="190"/>
    <line x1="175" y1="180" x2="175" y2="190"/>
    <text x="100" y="195" text-anchor="middle">长 43.8cm</text>
  </g>
  <text x="100" y="172" text-anchor="middle" fill="#5C4033" font-size="11" font-family="SimSun, STSong, serif" font-weight="bold">重锤储能器乙</text>
</svg>