<svg xmlns="http://www.w3.org/2000/svg" viewBox="0 0 200 200">
  <defs>
    <pattern id="grid-spring-094" width="10" height="10" patternUnits="userSpaceOnUse">
      <path d="M 10 0 L 0 0 0 10" fill="none" stroke="rgba(92, 64, 51, 0.05)" stroke-width="0.5"/>
    </pattern>
  </defs>
  <rect width="200" height="200" fill="url(#grid-spring-094)"/>
  
        <rect x="30" y="65" width="15" height="70" stroke="#5C4033" stroke-width="2" fill="#E8DFD0"/>
        <rect x="155" y="65" width="15" height="70" stroke="#5C4033" stroke-width="2" fill="#E8DFD0"/>
        <path d="M50.0,100.0 L50.7,109.7 L51.4,118.4 L52.1,125.4 L52.9,129.8 L53.6,131.4 L54.3,129.8 L55.0,125.4 L55.7,118.4 L56.4,109.7 L57.1,100.0 L57.9,90.3 L58.6,81.6 L59.3,74.6 L60.0,70.2 L60.7,68.6 L61.4,70.2 L62.1,74.6 L62.9,81.6 L63.6,90.3 L64.3,100.0 L65.0,109.7 L65.7,118.4 L66.4,125.4 L67.1,129.8 L67.9,131.4 L68.6,129.8 L69.3,125.4 L70.0,118.4 L70.7,109.7 L71.4,100.0 L72.1,90.3 L72.9,81.6 L73.6,74.6 L74.3,70.2 L75.0,68.6 L75.7,70.2 L76.4,74.6 L77.1,81.6 L77.9,90.3 L78.6,100.0 L79.3,109.7 L80.0,118.4 L80.7,125.4 L81.4,129.8 L82.1,131.4 L82.9,129.8 L83.6,125.4 L84.3,118.4 L85.0,109.7 L85.7,100.0 L86.4,90.3 L87.1,81.6 L87.9,74.6 L88.6,70.2 L89.3,68.6 L90.0,70.2 L90.7,74.6 L91.4,81.6 L92.1,90.3 L92.9,100.0 L93.6,109.7 L94.3,118.4 L95.0,125.4 L95.7,129.8 L96.4,131.4 L97.1,129.8 L97.9,125.4 L98.6,118.4 L99.3,109.7 L100.0,100.0 L100.7,90.3 L101.4,81.6 L102.1,74.6 L102.9,70.2 L103.6,68.6 L104.3,70.2 L105.0,74.6 L105.7,81.6 L106.4,90.3 L107.1,100.0 L107.9,109.7 L108.6,118.4 L109.3,125.4 L110.0,129.8 L110.7,131.4 L111.4,129.8 L112.1,125.4 L112.9,118.4 L113.6,109.7 L114.3,100.0 L115.0,90.3 L115.7,81.6 L116.4,74.6 L117.1,70.2 L117.9,68.6 L118.6,70.2 L119.3,74.6 L120.0,81.6 L120.7,90.3 L121.4,100.0 L122.1,109.7 L122.9,118.4 L123.6,125.4 L124.3,129.8 L125.0,131.4 L125.7,129.8 L126.4,125.4 L127.1,118.4 L127.9,109.7 L128.6,100.0 L129.3,90.3 L130.0,81.6 L130.7,74.6 L131.4,70.2 L132.1,68.6 L132.9,70.2 L133.6,74.6 L134.3,81.6 L135.0,90.3 L135.7,100.0 L136.4,109.7 L137.1,118.4 L137.9,125.4 L138.6,129.8 L139.3,131.4 L140.0,129.8 L140.7,125.4 L141.4,118.4 L142.1,109.7 L142.9,100.0 L143.6,90.3 L144.3,81.6 L145.0,74.6 L145.7,70.2 L146.4,68.6 L147.1,70.2 L147.9,74.6 L148.6,81.6 L149.3,90.3 L150.0,100.0 " stroke="#7A5A47" stroke-width="3" fill="none" stroke-linecap="round"/>
        <circle cx="100" cy="100" r="45" stroke="#C4A35A" stroke-width="1" stroke-dasharray="3,3" fill="none"/>
      
  <g stroke="#7A5A47" stroke-width="1" fill="#7A5A47" font-size="9" font-family="Consolas, monospace">
    <line x1="25" y1="185" x2="175" y2="185"/>
    <line x1="25" y1="180" x2="25" y2="190"/>
    <line x1="175" y1="180" x2="175" y2="190"/>
    <text x="100" y="195" text-anchor="middle">长 41cm</text>
  </g>
  <text x="100" y="172" text-anchor="middle" fill="#5C4033" font-size="11" font-family="SimSun, STSong, serif" font-weight="bold">板簧组丙</text>
</svg>