<svg xmlns="http://www.w3.org/2000/svg" viewBox="0 0 200 200">
  <defs>
    <pattern id="grid-spring-073" width="10" height="10" patternUnits="userSpaceOnUse">
      <path d="M 10 0 L 0 0 0 10" fill="none" stroke="rgba(92, 64, 51, 0.05)" stroke-width="0.5"/>
    </pattern>
  </defs>
  <rect width="200" height="200" fill="url(#grid-spring-073)"/>
  
        <rect x="30" y="65" width="15" height="70" stroke="#5C4033" stroke-width="2" fill="#E8DFD0"/>
        <rect x="155" y="65" width="15" height="70" stroke="#5C4033" stroke-width="2" fill="#E8DFD0"/>
        <path d="M50.0,100.0 L50.7,108.9 L51.4,117.0 L52.1,123.4 L52.9,127.5 L53.6,128.9 L54.3,127.5 L55.0,123.4 L55.7,117.0 L56.4,108.9 L57.1,100.0 L57.9,91.1 L58.6,83.0 L59.3,76.6 L60.0,72.5 L60.7,71.1 L61.4,72.5 L62.1,76.6 L62.9,83.0 L63.6,91.1 L64.3,100.0 L65.0,108.9 L65.7,117.0 L66.4,123.4 L67.1,127.5 L67.9,128.9 L68.6,127.5 L69.3,123.4 L70.0,117.0 L70.7,108.9 L71.4,100.0 L72.1,91.1 L72.9,83.0 L73.6,76.6 L74.3,72.5 L75.0,71.1 L75.7,72.5 L76.4,76.6 L77.1,83.0 L77.9,91.1 L78.6,100.0 L79.3,108.9 L80.0,117.0 L80.7,123.4 L81.4,127.5 L82.1,128.9 L82.9,127.5 L83.6,123.4 L84.3,117.0 L85.0,108.9 L85.7,100.0 L86.4,91.1 L87.1,83.0 L87.9,76.6 L88.6,72.5 L89.3,71.1 L90.0,72.5 L90.7,76.6 L91.4,83.0 L92.1,91.1 L92.9,100.0 L93.6,108.9 L94.3,117.0 L95.0,123.4 L95.7,127.5 L96.4,128.9 L97.1,127.5 L97.9,123.4 L98.6,117.0 L99.3,108.9 L100.0,100.0 L100.7,91.1 L101.4,83.0 L102.1,76.6 L102.9,72.5 L103.6,71.1 L104.3,72.5 L105.0,76.6 L105.7,83.0 L106.4,91.1 L107.1,100.0 L107.9,108.9 L108.6,117.0 L109.3,123.4 L110.0,127.5 L110.7,128.9 L111.4,127.5 L112.1,123.4 L112.9,117.0 L113.6,108.9 L114.3,100.0 L115.0,91.1 L115.7,83.0 L116.4,76.6 L117.1,72.5 L117.9,71.1 L118.6,72.5 L119.3,76.6 L120.0,83.0 L120.7,91.1 L121.4,100.0 L122.1,108.9 L122.9,117.0 L123.6,123.4 L124.3,127.5 L125.0,128.9 L125.7,127.5 L126.4,123.4 L127.1,117.0 L127.9,108.9 L128.6,100.0 L129.3,91.1 L130.0,83.0 L130.7,76.6 L131.4,72.5 L132.1,71.1 L132.9,72.5 L133.6,76.6 L134.3,83.0 L135.0,91.1 L135.7,100.0 L136.4,108.9 L137.1,117.0 L137.9,123.4 L138.6,127.5 L139.3,128.9 L140.0,127.5 L140.7,123.4 L141.4,117.0 L142.1,108.9 L142.9,100.0 L143.6,91.1 L144.3,83.0 L145.0,76.6 L145.7,72.5 L146.4,71.1 L147.1,72.5 L147.9,76.6 L148.6,83.0 L149.3,91.1 L150.0,100.0 " stroke="#7A5A47" stroke-width="3" fill="none" stroke-linecap="round"/>
        <circle cx="100" cy="100" r="45" stroke="#C4A35A" stroke-width="1" stroke-dasharray="3,3" fill="none"/>
      
  <g stroke="#7A5A47" stroke-width="1" fill="#7A5A47" font-size="9" font-family="Consolas, monospace">
    <line x1="25" y1="185" x2="175" y2="185"/>
    <line x1="25" y1="180" x2="25" y2="190"/>
    <line x1="175" y1="180" x2="175" y2="190"/>
    <text x="100" y="195" text-anchor="middle">长 5.9cm</text>
  </g>
  <text x="100" y="172" text-anchor="middle" fill="#5C4033" font-size="11" font-family="SimSun, STSong, serif" font-weight="bold">铜制飞轮</text>
</svg>