<svg xmlns="http://www.w3.org/2000/svg" viewBox="0 0 200 200">
  <defs>
    <pattern id="grid-timer-212" width="10" height="10" patternUnits="userSpaceOnUse">
      <path d="M 10 0 L 0 0 0 10" fill="none" stroke="rgba(92, 64, 51, 0.05)" stroke-width="0.5"/>
    </pattern>
  </defs>
  <rect width="200" height="200" fill="url(#grid-timer-212)"/>
  
        <circle cx="100" cy="100" r="60" stroke="#5C4033" stroke-width="3" fill="#F5F0E8"/>
        <circle cx="100" cy="100" r="50" stroke="#C4A35A" stroke-width="1" fill="none"/>
        <line x1="100.0" y1="55.0" x2="100.0" y2="45.0" stroke="#5C4033" stroke-width="1.5"/><line x1="122.5" y1="61.0" x2="127.5" y2="52.4" stroke="#5C4033" stroke-width="1.5"/><line x1="139.0" y1="77.5" x2="147.6" y2="72.5" stroke="#5C4033" stroke-width="1.5"/><line x1="145.0" y1="100.0" x2="155.0" y2="100.0" stroke="#5C4033" stroke-width="1.5"/><line x1="139.0" y1="122.5" x2="147.6" y2="127.5" stroke="#5C4033" stroke-width="1.5"/><line x1="122.5" y1="139.0" x2="127.5" y2="147.6" stroke="#5C4033" stroke-width="1.5"/><line x1="100.0" y1="145.0" x2="100.0" y2="155.0" stroke="#5C4033" stroke-width="1.5"/><line x1="77.5" y1="139.0" x2="72.5" y2="147.6" stroke="#5C4033" stroke-width="1.5"/><line x1="61.0" y1="122.5" x2="52.4" y2="127.5" stroke="#5C4033" stroke-width="1.5"/><line x1="55.0" y1="100.0" x2="45.0" y2="100.0" stroke="#5C4033" stroke-width="1.5"/><line x1="61.0" y1="77.5" x2="52.4" y2="72.5" stroke="#5C4033" stroke-width="1.5"/><line x1="77.5" y1="61.0" x2="72.5" y2="52.4" stroke="#5C4033" stroke-width="1.5"/>
        <circle cx="100" cy="100" r="6" stroke="#5C4033" stroke-width="2" fill="#7A5A47"/>
        <line x1="100" y1="100" x2="100" y2="60" stroke="#5C4033" stroke-width="3" stroke-linecap="round"/>
        <line x1="100" y1="100" x2="125" y2="110" stroke="#7A5A47" stroke-width="2" stroke-linecap="round"/>
      
  <g stroke="#7A5A47" stroke-width="1" fill="#7A5A47" font-size="9" font-family="Consolas, monospace">
    <line x1="25" y1="185" x2="175" y2="185"/>
    <line x1="25" y1="180" x2="25" y2="190"/>
    <line x1="175" y1="180" x2="175" y2="190"/>
    <text x="100" y="195" text-anchor="middle">13.4×6.5cm</text>
  </g>
  <text x="100" y="172" text-anchor="middle" fill="#5C4033" font-size="11" font-family="SimSun, STSong, serif" font-weight="bold">刻漏浮标</text>
</svg>